<svg width="64" height="21" viewBox="0 0 64 21" fill="none" xmlns="http://www.w3.org/2000/svg">
<g id="Airbnb" clip-path="url(#clip0_3_810)">
<path id="Vector" d="M33.7295 5.52503C33.7295 6.24575 33.1496 6.82633 32.4299 6.82633C31.7101 6.82633 31.1303 6.24575 31.1303 5.52503C31.1303 4.8043 31.6901 4.22372 32.4299 4.22372C33.1696 4.24374 33.7295 4.82432 33.7295 5.52503ZM28.3711 8.14765C28.3711 8.26777 28.3711 8.46797 28.3711 8.46797C28.3711 8.46797 27.7513 7.66717 26.4317 7.66717C24.2524 7.66717 22.5529 9.32883 22.5529 11.6311C22.5529 13.9134 24.2324 15.5951 26.4317 15.5951C27.7713 15.5951 28.3711 14.7743 28.3711 14.7743V15.1146C28.3711 15.2748 28.4911 15.3949 28.651 15.3949H30.2705V7.86737C30.2705 7.86737 28.791 7.86737 28.651 7.86737C28.4911 7.86737 28.3711 8.00751 28.3711 8.14765ZM28.3711 12.9725C28.0712 13.4129 27.4714 13.7933 26.7516 13.7933C25.472 13.7933 24.4923 12.9925 24.4923 11.6311C24.4923 10.2698 25.472 9.46897 26.7516 9.46897C27.4514 9.46897 28.0912 9.86937 28.3711 10.2898V12.9725ZM31.4702 7.86737H33.3896V15.3949H31.4702V7.86737ZM60.1412 7.66717C58.8216 7.66717 58.2018 8.46797 58.2018 8.46797V4.24374H56.2824V15.3949C56.2824 15.3949 57.7619 15.3949 57.9019 15.3949C58.0619 15.3949 58.1818 15.2548 58.1818 15.1146V14.7743C58.1818 14.7743 58.8016 15.5951 60.1212 15.5951C62.3005 15.5951 64 13.9134 64 11.6311C64 9.34885 62.3005 7.66717 60.1412 7.66717ZM59.8213 13.7733C59.0815 13.7733 58.5017 13.3929 58.2018 12.9525V10.2698C58.5017 9.86937 59.1415 9.44895 59.8213 9.44895C61.1009 9.44895 62.0806 10.2498 62.0806 11.6111C62.0806 12.9725 61.1009 13.7733 59.8213 13.7733ZM55.2827 10.9304V15.4149H53.3633V11.1507C53.3633 9.90941 52.9634 9.40891 51.8838 9.40891C51.304 9.40891 50.7041 9.70921 50.3243 10.1497V15.3949H48.4049V7.86737H49.9244C50.0843 7.86737 50.2043 8.00751 50.2043 8.14765V8.46797C50.7641 7.88739 51.5039 7.66717 52.2437 7.66717C53.0834 7.66717 53.7832 7.90741 54.343 8.38789C55.0228 8.94845 55.2827 9.66917 55.2827 10.9304ZM43.7463 7.66717C42.4267 7.66717 41.8069 8.46797 41.8069 8.46797V4.24374H39.8875V15.3949C39.8875 15.3949 41.3671 15.3949 41.507 15.3949C41.667 15.3949 41.7869 15.2548 41.7869 15.1146V14.7743C41.7869 14.7743 42.4067 15.5951 43.7263 15.5951C45.9056 15.5951 47.6051 13.9134 47.6051 11.6311C47.6251 9.34885 45.9256 7.66717 43.7463 7.66717ZM43.4264 13.7733C42.6866 13.7733 42.1068 13.3929 41.8069 12.9525V10.2698C42.1068 9.86937 42.7466 9.44895 43.4264 9.44895C44.706 9.44895 45.6857 10.2498 45.6857 11.6111C45.6857 12.9725 44.706 13.7733 43.4264 13.7733ZM38.228 7.66717C38.8079 7.66717 39.1078 7.76727 39.1078 7.76727V9.54905C39.1078 9.54905 37.5083 9.00851 36.5086 10.1497V15.4149H34.5892V7.86737C34.5892 7.86737 36.0687 7.86737 36.2087 7.86737C36.3686 7.86737 36.4886 8.00751 36.4886 8.14765V8.46797C36.8485 8.04755 37.6282 7.66717 38.228 7.66717ZM18.2943 14.7142C18.1943 14.474 18.0943 14.2137 17.9944 13.9935C17.8344 13.6331 17.6745 13.2928 17.5345 12.9725L17.5145 12.9525C16.1349 9.94945 14.6554 6.90641 13.0959 3.9034L13.0359 3.78328C12.876 3.48298 12.716 3.16266 12.5561 2.84234C12.3561 2.48198 12.1562 2.1016 11.8363 1.74124C11.1965 0.94044 10.2768 0.5 9.29708 0.5C8.2974 0.5 7.39768 0.94044 6.73788 1.7012C6.43798 2.06156 6.21805 2.44194 6.01811 2.8023C5.85816 3.12262 5.69821 3.44294 5.53826 3.74324L5.47828 3.86336C3.93876 6.86637 2.43923 9.90941 1.05966 12.9124L1.03966 12.9525C0.899707 13.2728 0.739757 13.6131 0.579807 13.9735C0.479838 14.1937 0.379869 14.4339 0.2799 14.6942C0.0199814 15.4349 -0.0599936 16.1356 0.0399752 16.8564C0.259906 18.3579 1.25959 19.6191 2.63916 20.1797C3.159 20.3999 3.69883 20.5 4.25866 20.5C4.41861 20.5 4.61854 20.48 4.77849 20.46C5.43829 20.3799 6.11808 20.1597 6.77787 19.7793C7.59761 19.3188 8.37737 18.6582 9.2571 17.6972C10.1368 18.6582 10.9366 19.3188 11.7363 19.7793C12.3961 20.1597 13.0759 20.3799 13.7357 20.46C13.8956 20.48 14.0956 20.5 14.2555 20.5C14.8154 20.5 15.3752 20.3999 15.875 20.1797C17.2746 19.6191 18.2543 18.3378 18.4742 16.8564C18.6342 16.1557 18.5542 15.455 18.2943 14.7142ZM9.27709 15.7553C8.19743 14.3939 7.49765 13.1126 7.25772 12.0315C7.15775 11.5711 7.13776 11.1707 7.19774 10.8103C7.23773 10.49 7.35769 10.2097 7.51764 9.96947C7.89752 9.42893 8.53732 9.08859 9.27709 9.08859C10.0169 9.08859 10.6767 9.40891 11.0365 9.96947C11.1965 10.2097 11.3165 10.49 11.3564 10.8103C11.4164 11.1707 11.3964 11.5911 11.2965 12.0315C11.0565 13.0926 10.3568 14.3739 9.27709 15.7553ZM17.2546 16.6962C17.1146 17.7372 16.4149 18.6381 15.4352 19.0385C14.9553 19.2387 14.4355 19.2988 13.9156 19.2387C13.4158 19.1787 12.916 19.0185 12.3961 18.7182C11.6763 18.3178 10.9566 17.6972 10.1168 16.7763C11.4364 15.1547 12.2362 13.6732 12.5361 12.3519C12.676 11.7312 12.696 11.1707 12.636 10.6502C12.5561 10.1496 12.3761 9.68919 12.0962 9.28879C11.4764 8.38789 10.4367 7.86737 9.27709 7.86737C8.11745 7.86737 7.07778 8.40791 6.45797 9.28879C6.17806 9.68919 5.99811 10.1496 5.91814 10.6502C5.83816 11.1707 5.85816 11.7513 6.01811 12.3519C6.31801 13.6732 7.13776 15.1747 8.43735 16.7963C7.61761 17.7172 6.87784 18.3378 6.15806 18.7382C5.63823 19.0385 5.13838 19.1987 4.63854 19.2588C4.09871 19.3188 3.57887 19.2387 3.11901 19.0586C2.13932 18.6582 1.43954 17.7573 1.29958 16.7162C1.2396 16.2157 1.27959 15.7152 1.47953 15.1547C1.53951 14.9545 1.63948 14.7543 1.73944 14.514C1.8794 14.1937 2.03935 13.8534 2.1993 13.513L2.21929 13.473C3.59886 10.49 5.0784 7.44695 6.61792 4.48398L6.6779 4.36386C6.83785 4.06356 6.9978 3.74324 7.15775 3.44294C7.3177 3.12262 7.49765 2.82232 7.71758 2.56206C8.13745 2.08158 8.69727 1.82132 9.31708 1.82132C9.93688 1.82132 10.4967 2.08158 10.9166 2.56206C11.1365 2.82232 11.3165 3.12262 11.4764 3.44294C11.6364 3.74324 11.7963 4.06356 11.9563 4.36386L12.0162 4.48398C13.5358 7.46697 15.0153 10.51 16.3949 13.493V13.513C16.5548 13.8333 16.6948 14.1937 16.8547 14.514C16.9547 14.7543 17.0547 14.9545 17.1146 15.1547C17.2746 15.6752 17.3346 16.1757 17.2546 16.6962Z" fill="#FF5A5F"/>
</g>
<defs>
<clipPath id="clip0_3_810">
<rect width="64" height="20" fill="white" transform="translate(0 0.5)"/>
</clipPath>
</defs>
</svg>
