<svg width="126" height="39" viewBox="0 0 126 39" fill="none" xmlns="http://www.w3.org/2000/svg">
<g id="Airbnb" clip-path="url(#clip0_3_170)">
<path id="Vector" d="M66.4049 9.7988C66.4049 11.2042 65.2633 12.3363 63.8463 12.3363C62.4292 12.3363 61.2877 11.2042 61.2877 9.7988C61.2877 8.39339 62.3899 7.26126 63.8463 7.26126C65.3027 7.3003 66.4049 8.43243 66.4049 9.7988ZM55.8557 14.9129C55.8557 15.1471 55.8557 15.5375 55.8557 15.5375C55.8557 15.5375 54.6354 13.976 52.0375 13.976C47.7469 13.976 44.4011 17.2162 44.4011 21.7057C44.4011 26.1562 47.7076 29.4354 52.0375 29.4354C54.6748 29.4354 55.8557 27.8348 55.8557 27.8348V28.4985C55.8557 28.8108 56.0918 29.045 56.4067 29.045H59.5951V14.3664C59.5951 14.3664 56.6823 14.3664 56.4067 14.3664C56.0918 14.3664 55.8557 14.6396 55.8557 14.9129ZM55.8557 24.3213C55.2652 25.1802 54.0843 25.9219 52.6673 25.9219C50.1481 25.9219 48.2193 24.3604 48.2193 21.7057C48.2193 19.0511 50.1481 17.4895 52.6673 17.4895C54.045 17.4895 55.3046 18.2703 55.8557 19.0901V24.3213ZM61.9569 14.3664H65.7357V29.045H61.9569V14.3664ZM118.403 13.976C115.805 13.976 114.585 15.5375 114.585 15.5375V7.3003H110.806V29.045C110.806 29.045 113.719 29.045 113.994 29.045C114.309 29.045 114.545 28.7718 114.545 28.4985V27.8348C114.545 27.8348 115.766 29.4354 118.364 29.4354C122.654 29.4354 126 26.1562 126 21.7057C126 17.2553 122.654 13.976 118.403 13.976ZM117.773 25.8829C116.317 25.8829 115.175 25.1411 114.585 24.2823V19.0511C115.175 18.2703 116.435 17.4505 117.773 17.4505C120.292 17.4505 122.221 19.012 122.221 21.6667C122.221 24.3213 120.292 25.8829 117.773 25.8829ZM108.838 20.3393V29.0841H105.059V20.7688C105.059 18.3483 104.272 17.3724 102.146 17.3724C101.005 17.3724 99.8238 17.958 99.0759 18.8168V29.045H95.2971V14.3664H98.2887C98.6036 14.3664 98.8397 14.6396 98.8397 14.9129V15.5375C99.9419 14.4054 101.398 13.976 102.855 13.976C104.508 13.976 105.886 14.4444 106.988 15.3814C108.326 16.4745 108.838 17.8799 108.838 20.3393ZM86.1256 13.976C83.5276 13.976 82.3074 15.5375 82.3074 15.5375V7.3003H78.5286V29.045C78.5286 29.045 81.4414 29.045 81.7169 29.045C82.0319 29.045 82.268 28.7718 82.268 28.4985V27.8348C82.268 27.8348 83.4883 29.4354 86.0862 29.4354C90.3767 29.4354 93.7226 26.1562 93.7226 21.7057C93.7619 17.2553 90.4161 13.976 86.1256 13.976ZM85.4958 25.8829C84.0393 25.8829 82.8978 25.1411 82.3074 24.2823V19.0511C82.8978 18.2703 84.1574 17.4505 85.4958 17.4505C88.015 17.4505 89.9438 19.012 89.9438 21.6667C89.9438 24.3213 88.015 25.8829 85.4958 25.8829ZM75.2615 13.976C76.403 13.976 76.9934 14.1712 76.9934 14.1712V17.6456C76.9934 17.6456 73.8444 16.5916 71.8763 18.8168V29.0841H68.0975V14.3664C68.0975 14.3664 71.0103 14.3664 71.2858 14.3664C71.6007 14.3664 71.8369 14.6396 71.8369 14.9129V15.5375C72.5454 14.7177 74.0806 13.976 75.2615 13.976ZM36.0169 27.7177C35.82 27.2492 35.6232 26.7417 35.4264 26.3123C35.1115 25.6096 34.7966 24.9459 34.5211 24.3213L34.4817 24.2823C31.7657 18.4264 28.8528 12.4925 25.7826 6.63664L25.6645 6.4024C25.3496 5.81682 25.0347 5.19219 24.7198 4.56757C24.3261 3.86486 23.9325 3.12312 23.3027 2.42042C22.0431 0.858859 20.2324 0 18.3036 0C16.3355 0 14.5642 0.858859 13.2652 2.34234C12.6748 3.04505 12.2418 3.78679 11.8482 4.48949C11.5333 5.11411 11.2184 5.73874 10.9035 6.32433L10.7854 6.55856C7.75444 12.4144 4.80223 18.3483 2.08621 24.2042L2.04684 24.2823C1.77131 24.9069 1.4564 25.5706 1.1415 26.2733C0.944689 26.7027 0.747876 27.1712 0.551062 27.6787C0.039347 29.1231 -0.118104 30.4895 0.0787097 31.8949C0.511699 34.8228 2.47983 37.2823 5.19586 38.3754C6.21929 38.8048 7.28208 39 8.38424 39C8.69914 39 9.09277 38.961 9.40767 38.9219C10.7066 38.7658 12.045 38.3363 13.3439 37.5946C14.9578 36.6967 16.493 35.4084 18.2249 33.5345C19.9569 35.4084 21.5314 36.6967 23.1059 37.5946C24.4049 38.3363 25.7432 38.7658 27.0422 38.9219C27.3571 38.961 27.7507 39 28.0656 39C29.1677 39 30.2699 38.8048 31.254 38.3754C34.0094 37.2823 35.9381 34.7838 36.3711 31.8949C36.686 30.5285 36.5286 29.1622 36.0169 27.7177ZM18.2643 29.7477C16.1387 27.0931 14.761 24.5946 14.2886 22.4865C14.0918 21.5886 14.0525 20.8078 14.1706 20.1051C14.2493 19.4805 14.4855 18.9339 14.8004 18.4655C15.5483 17.4114 16.8079 16.7477 18.2643 16.7477C19.7207 16.7477 21.0197 17.3724 21.7282 18.4655C22.0431 18.9339 22.2793 19.4805 22.358 20.1051C22.4761 20.8078 22.4367 21.6276 22.2399 22.4865C21.7676 24.5556 20.3899 27.0541 18.2643 29.7477ZM33.97 31.5826C33.6945 33.6126 32.3168 35.3694 30.388 36.1502C29.4433 36.5405 28.4199 36.6577 27.3964 36.5405C26.4124 36.4234 25.4283 36.1111 24.4049 35.5255C22.9878 34.7447 21.5707 33.5345 19.9175 31.7387C22.5154 28.5766 24.09 25.6877 24.6804 23.1111C24.9559 21.9009 24.9953 20.8078 24.8772 19.7928C24.7198 18.8168 24.3655 17.9189 23.8144 17.1381C22.5942 15.3814 20.5473 14.3664 18.2643 14.3664C15.9812 14.3664 13.9344 15.4204 12.7141 17.1381C12.1631 17.9189 11.8088 18.8168 11.6513 19.7928C11.4939 20.8078 11.5333 21.9399 11.8482 23.1111C12.4386 25.6877 14.0525 28.6156 16.611 31.7778C14.9972 33.5736 13.5408 34.7838 12.1237 35.5646C11.1003 36.1502 10.1162 36.4625 9.13213 36.5796C8.06934 36.6967 7.04591 36.5405 6.14057 36.1892C4.21179 35.4084 2.8341 33.6517 2.55856 31.6216C2.44047 30.6456 2.5192 29.6697 2.91282 28.5766C3.03091 28.1862 3.22773 27.7958 3.42454 27.3273C3.70008 26.7027 4.01498 26.039 4.32988 25.3754L4.36924 25.2973C7.08527 19.4805 9.99811 13.5465 13.029 7.76877L13.1471 7.53453C13.462 6.94895 13.7769 6.32432 14.0918 5.73874C14.4067 5.11411 14.761 4.52853 15.194 4.02102C16.0206 3.08408 17.1228 2.57658 18.343 2.57658C19.5632 2.57658 20.6654 3.08408 21.492 4.02102C21.925 4.52853 22.2793 5.11411 22.5942 5.73874C22.9091 6.32432 23.224 6.94895 23.5389 7.53453L23.657 7.76877C26.6485 13.5856 29.5614 19.5195 32.2774 25.3363V25.3754C32.5923 26 32.8678 26.7027 33.1827 27.3273C33.3796 27.7958 33.5764 28.1862 33.6945 28.5766C34.0094 29.5916 34.1274 30.5676 33.97 31.5826Z" fill="#FF5A5F"/>
</g>
<defs>
<clipPath id="clip0_3_170">
<rect width="126" height="39" fill="white"/>
</clipPath>
</defs>
</svg>
