<svg width="122" height="37" viewBox="0 0 122 37" fill="none" xmlns="http://www.w3.org/2000/svg">
<g clip-path="url(#clip0_3_199)">
<path fill-rule="evenodd" clip-rule="evenodd" d="M75.6864 28.9349C68.5967 34.1939 58.3208 36.9998 49.4733 36.9998C37.0678 36.9998 25.8997 32.3821 17.4505 24.7021C16.7867 24.0982 17.3815 23.2751 18.1781 23.7454C27.2963 29.0846 38.5707 32.2966 50.2168 32.2966C58.0712 32.2966 66.7115 30.6612 74.6561 27.2675C75.8563 26.7544 76.86 28.0584 75.6864 28.9349Z" fill="#FF9900"/>
<path fill-rule="evenodd" clip-rule="evenodd" d="M78.6337 25.5413C77.7309 24.3762 72.6434 24.9908 70.3598 25.2634C69.6641 25.3489 69.5579 24.7396 70.1846 24.3014C74.2365 21.4314 80.8854 22.2598 81.6607 23.2218C82.4361 24.1891 81.4589 30.8965 77.6512 34.0978C77.0671 34.5895 76.5095 34.3276 76.7697 33.6756C77.6247 31.5271 79.5418 26.7117 78.6337 25.5413Z" fill="#FF9900"/>
<path fill-rule="evenodd" clip-rule="evenodd" d="M70.5192 4.04047V1.25064C70.5192 0.828424 70.8379 0.545166 71.2202 0.545166H83.6311C84.0294 0.545166 84.348 0.833769 84.348 1.25064V3.63963C84.3427 4.04047 84.0081 4.56423 83.4133 5.39263L76.9822 14.6333C79.372 14.5745 81.8945 14.9326 84.0612 16.1618C84.5498 16.4397 84.6826 16.8459 84.7197 17.2467V20.2236C84.7197 20.6298 84.2736 21.1055 83.8063 20.8596C79.988 18.8447 74.9164 18.6256 70.6945 20.881C70.2643 21.1161 69.8129 20.6458 69.8129 20.2396V17.4124C69.8129 16.9581 69.8182 16.1832 70.2696 15.4937L77.7204 4.7406H71.2362C70.8379 4.7406 70.5192 4.45734 70.5192 4.04047Z" fill="black"/>
<path fill-rule="evenodd" clip-rule="evenodd" d="M25.2465 21.4474H21.4707C21.1096 21.4207 20.8228 21.1481 20.7962 20.8007V1.29867C20.7962 0.908523 21.1202 0.598539 21.5238 0.598539H25.0447C25.4111 0.614562 25.7032 0.89783 25.7298 1.25057V3.7999H25.7988C26.7175 1.33608 28.4435 0.187012 30.7695 0.187012C33.1327 0.187012 34.6091 1.33608 35.6712 3.7999C36.5846 1.33608 38.661 0.187012 40.8862 0.187012C42.4687 0.187012 44.2 0.844385 45.2568 2.31947C46.4517 3.96023 46.2074 6.34387 46.2074 8.43358L46.2021 20.742C46.2021 21.1321 45.8781 21.4474 45.4745 21.4474H41.704C41.3269 21.4207 41.0242 21.1161 41.0242 20.742V10.4057C41.0242 9.58264 41.0986 7.53036 40.918 6.75006C40.6366 5.44066 39.7922 5.07188 38.6982 5.07188C37.7848 5.07188 36.8289 5.6865 36.4412 6.66989C36.0535 7.65328 36.0907 9.29938 36.0907 10.4057V20.742C36.0907 21.1321 35.7668 21.4474 35.3632 21.4474H31.5927C31.2103 21.4207 30.9129 21.1161 30.9129 20.742L30.9076 10.4057C30.9076 8.23049 31.2634 5.02913 28.5816 5.02913C25.8678 5.02913 25.9741 8.15031 25.9741 10.4057V20.742C25.9741 21.1321 25.6501 21.4474 25.2465 21.4474" fill="black"/>
<path fill-rule="evenodd" clip-rule="evenodd" d="M95.0329 0.187012C100.636 0.187012 103.668 5.02913 103.668 11.186C103.668 17.1344 100.317 21.8536 95.0329 21.8536C89.5311 21.8536 86.5359 17.0115 86.5359 10.9776C86.5359 4.9062 89.5683 0.187012 95.0329 0.187012ZM95.0647 4.16867C92.282 4.16867 92.1067 7.98464 92.1067 10.3629C92.1067 12.7466 92.0696 17.8346 95.0329 17.8346C97.959 17.8346 98.0971 13.73 98.0971 11.2287C98.0971 9.58264 98.028 7.61587 97.5342 6.05527C97.1093 4.69777 96.2649 4.16867 95.0647 4.16867Z" fill="black"/>
<path fill-rule="evenodd" clip-rule="evenodd" d="M110.933 21.4474H107.173C106.796 21.4207 106.493 21.1161 106.493 20.742L106.488 1.23453C106.52 0.876452 106.833 0.598539 107.215 0.598539H110.715C111.044 0.614562 111.315 0.839042 111.389 1.14368V4.12591H111.458C112.515 1.459 113.997 0.187012 116.604 0.187012C118.299 0.187012 119.95 0.80163 121.012 2.48515C122 4.04574 122 6.66989 122 8.5565V20.8328C121.958 21.1749 121.644 21.4474 121.272 21.4474H117.486C117.141 21.4207 116.854 21.1642 116.817 20.8328V10.24C116.817 8.10756 117.061 4.98637 114.454 4.98637C113.535 4.98637 112.691 5.60634 112.271 6.54697C111.74 7.73879 111.671 8.92527 111.671 10.24V20.742C111.666 21.1321 111.336 21.4474 110.933 21.4474" fill="black"/>
<path fill-rule="evenodd" clip-rule="evenodd" d="M60.6256 12.132C60.6256 13.6124 60.6628 14.847 59.9193 16.1618C59.3192 17.2307 58.3633 17.888 57.3065 17.888C55.8567 17.888 55.007 16.7764 55.007 15.1356C55.007 11.8969 57.8906 11.309 60.6256 11.309V12.132ZM64.4333 21.394C64.1837 21.6185 63.8226 21.6345 63.5411 21.4849C62.2878 20.4374 62.0594 19.951 61.3744 18.9516C59.3033 21.0787 57.8322 21.7147 55.1504 21.7147C51.9693 21.7147 49.4999 19.7426 49.4999 15.793C49.4999 12.7092 51.1568 10.6088 53.5253 9.58269C55.5752 8.67412 58.4376 8.51379 60.6256 8.2626V7.7709C60.6256 6.86768 60.6946 5.79878 60.1636 5.01849C59.7069 4.31836 58.8253 4.02975 58.0446 4.02975C56.6055 4.02975 55.3256 4.77264 55.0123 6.31185C54.9486 6.6539 54.699 6.99061 54.3538 7.00664L50.6948 6.61115C50.3868 6.54167 50.0416 6.29047 50.1319 5.81482C50.971 1.34682 54.9858 0 58.5757 0C60.4132 0 62.8136 0.491695 64.2633 1.89195C66.1008 3.61823 65.9256 5.92171 65.9256 8.42828V14.35C65.9256 16.1297 66.6584 16.91 67.3488 17.872C67.5878 18.2141 67.6409 18.6256 67.3328 18.8821C66.5628 19.5288 65.1927 20.7313 64.4386 21.4047L64.4333 21.394" fill="black"/>
<path fill-rule="evenodd" clip-rule="evenodd" d="M11.1257 12.1323C11.1257 13.6127 11.1628 14.8473 10.4194 16.162C9.81926 17.2309 8.86867 17.8883 7.80655 17.8883C6.35676 17.8883 5.51238 16.7766 5.51238 15.1359C5.51238 11.8971 8.39603 11.3092 11.1257 11.3092V12.1323ZM14.9334 21.3943C14.6838 21.6187 14.3226 21.6348 14.0412 21.4851C12.7879 20.4376 12.5648 19.9513 11.8745 18.9518C9.80333 21.079 8.33761 21.7149 5.65046 21.7149C2.47473 21.7149 0 19.7428 0 15.7932C0 12.7095 1.66221 10.6091 4.02542 9.58293C6.0753 8.67437 8.93771 8.51403 11.1257 8.26284V7.77115C11.1257 6.86793 11.1947 5.79903 10.669 5.01873C10.2069 4.3186 9.32538 4.03 8.55003 4.03C7.11087 4.03 5.82571 4.77288 5.51238 6.3121C5.44865 6.65415 5.19906 6.99085 4.85918 7.00689L1.19488 6.61139C0.886867 6.54191 0.546989 6.29072 0.631958 5.81506C1.47634 1.34706 5.48583 0.000244141 9.07578 0.000244141C10.9132 0.000244141 13.3136 0.491939 14.7634 1.8922C16.6009 3.61847 16.4256 5.92195 16.4256 8.42852V14.3502C16.4256 16.1299 17.1585 16.9102 17.8489 17.8723C18.0931 18.2143 18.1463 18.6258 17.8382 18.8824C17.0682 19.529 15.6981 20.7316 14.944 21.405L14.9334 21.3943" fill="black"/>
</g>
<defs>
<clipPath id="clip0_3_199">
<rect width="122" height="37" fill="white"/>
</clipPath>
</defs>
</svg>
