<svg width="129" height="25" viewBox="0 0 129 25" fill="none" xmlns="http://www.w3.org/2000/svg">
<path d="M41.1853 6.3141C43.037 6.3141 44.5184 6.93239 45.7529 8.2102L45.8352 8.29264L47.4813 6.68507L47.4401 6.60263C45.9587 4.95385 43.6954 4.04702 41.103 4.04702C36.0003 4.04702 32.2556 7.59191 32.2556 12.497C32.2556 17.4022 35.9592 20.9471 41.0618 20.9471C43.6543 20.9471 45.9175 20.0402 47.4401 18.3502L47.4813 18.2678L45.8352 16.6602L45.7529 16.7427C44.5184 18.0205 42.9959 18.68 41.1853 18.68C37.4817 18.68 34.807 16.0831 34.807 12.497C34.807 8.91093 37.5229 6.3141 41.1853 6.3141ZM54.518 18.8036C52.0901 18.8036 50.4029 17.0312 50.4029 14.558C50.4029 12.0436 52.0901 10.3124 54.518 10.3124C56.9458 10.3124 58.633 12.0436 58.633 14.558C58.633 17.0724 56.9458 18.8036 54.518 18.8036ZM54.518 8.16898C50.691 8.16898 47.9339 10.8483 47.9339 14.558C47.9339 18.2678 50.691 20.9471 54.518 20.9471C58.3449 20.9471 61.102 18.2678 61.102 14.558C61.102 10.8483 58.3038 8.16898 54.518 8.16898ZM68.5091 18.8036C66.0812 18.8036 64.3529 17.0312 64.3529 14.5168C64.3529 12.0024 66.04 10.23 68.5091 10.23C70.9369 10.23 72.6241 12.0024 72.6241 14.5168C72.6241 17.0312 70.9369 18.8036 68.5091 18.8036ZM72.6241 9.9002C71.5953 8.70483 70.1139 8.08654 68.3445 8.08654C64.5586 8.08654 61.925 10.7246 61.925 14.5168C61.925 18.309 64.5586 20.9471 68.3445 20.9471C70.1551 20.9471 71.7188 20.2463 72.7064 19.0097V20.7822H75.0519V3.22263H72.5829L72.6241 9.9002ZM82.9528 10.23C84.9692 10.23 86.4917 11.5902 86.7798 13.5688H79.167C79.4139 11.5902 80.8953 10.23 82.9528 10.23ZM82.9528 8.16898C79.3316 8.16898 76.7391 10.8483 76.7391 14.558C76.7391 18.309 79.455 20.9471 83.4055 20.9471C85.463 20.9471 87.1501 20.2463 88.3024 18.9273L88.3435 18.8861L86.9855 17.3197L86.9032 17.4022C86.0391 18.3502 84.8869 18.8449 83.4466 18.8449C81.1422 18.8449 79.455 17.5258 79.1258 15.4236H89.0019V15.3412C89.0431 15.1351 89.0431 14.8466 89.0431 14.6405C89.0842 10.807 86.5329 8.16898 82.9528 8.16898ZM100.318 17.0724C99.5775 18.1854 98.4253 18.8036 96.9851 18.8036C94.4749 18.8036 92.7877 17.0724 92.7877 14.558C92.7877 12.0436 94.516 10.3124 96.9851 10.3124C98.4253 10.3124 99.5775 10.8895 100.318 12.0436L100.359 12.1261L102.252 10.9307L102.211 10.8483C101.224 9.15825 99.3306 8.16898 97.0262 8.16898C93.1581 8.16898 90.3187 10.8483 90.3187 14.558C90.3187 18.2678 93.1581 20.9471 97.0262 20.9471C99.3306 20.9471 101.224 19.9578 102.211 18.2266L102.252 18.1441L100.359 16.99L100.318 17.0724ZM109.659 18.8036C107.231 18.8036 105.544 17.0312 105.544 14.558C105.544 12.0436 107.231 10.3124 109.659 10.3124C112.087 10.3124 113.774 12.0436 113.774 14.558C113.774 17.0724 112.087 18.8036 109.659 18.8036ZM109.659 8.16898C105.832 8.16898 103.075 10.8483 103.075 14.558C103.075 18.2678 105.832 20.9471 109.659 20.9471C113.486 20.9471 116.243 18.2678 116.243 14.558C116.243 10.8483 113.445 8.16898 109.659 8.16898ZM126.613 8.16898L122.416 17.8144L118.301 8.16898H115.791L121.181 20.4936L121.223 20.5349H123.609L129 8.16898H126.613ZM13.0898 0C5.87588 0 0 5.82751 0 12.9371V12.9953L2.21073 14.2774H2.2689C3.66515 13.345 5.35229 12.9953 7.03942 13.2867C8.20296 13.5198 9.30833 14.0443 10.181 14.8601L10.5882 15.2098L10.8209 14.7436C11.0536 14.2774 11.2863 13.8695 11.5191 13.4615C11.6354 13.2867 11.7518 13.1702 11.8681 12.9953L12.1008 12.704L11.8099 12.4709C10.5882 11.4802 9.1338 10.7809 7.56302 10.4895C6.05041 10.1981 4.53781 10.2564 3.14156 10.7226C4.18875 6.11888 8.26114 2.85548 13.0898 2.85548C15.8242 2.85548 18.3839 3.90443 20.3038 5.82751C21.7 7.16783 22.6309 8.85781 23.0381 10.7226C22.1655 10.4312 21.2346 10.3147 20.3038 10.3147H20.1293C19.7802 10.3147 19.4311 10.373 19.0239 10.373H18.9657C18.8494 10.373 18.6748 10.4312 18.5585 10.4312C18.3258 10.4895 18.1512 10.4895 17.9185 10.5478L17.744 10.6061C17.5695 10.6643 17.3949 10.7226 17.2204 10.7809H17.1622C16.755 10.8974 16.4059 11.0723 15.9987 11.2471C15.8242 11.3054 15.6496 11.4219 15.4751 11.5385H15.4169C14.5443 12.0629 13.7298 12.704 13.0898 13.5198L13.0317 13.6364C12.8571 13.8695 12.7408 14.0443 12.6244 14.1608C12.5081 14.2774 12.4499 14.4522 12.3335 14.627L12.2754 14.7436C12.159 14.9184 12.1008 15.0932 12.0426 15.2098V15.2681C11.8681 15.6177 11.6936 16.0256 11.5772 16.4336V16.4918C11.2863 17.4242 11.1118 18.4149 11.1118 19.4639V19.5804C11.1118 19.697 11.1118 19.8718 11.1118 19.9883C11.1118 20.0466 11.1118 20.1049 11.1118 20.1632C11.1118 20.2214 11.1118 20.338 11.1118 20.3963V20.4545V20.5711C11.1118 20.6876 11.17 20.8625 11.17 20.979C11.4609 22.3776 12.1008 23.7179 13.0898 24.9417L13.148 25L13.2062 24.9417C13.6134 24.4755 14.5443 23.0186 14.6606 22.1445C14.1952 21.2704 13.9625 20.2797 13.9625 19.3473C13.9625 16.0839 16.5223 13.345 19.8384 13.1702H20.0711C21.4092 13.1119 22.7472 13.5198 23.8526 14.2774H23.9108L26.1215 12.9953V12.9371C26.1215 9.49883 24.7834 6.23543 22.2818 3.78788C19.8384 1.34033 16.5805 0 13.0898 0Z" fill="#FF0077"/>
</svg>
