<svg width="98" height="19" viewBox="0 0 98 19" fill="none" xmlns="http://www.w3.org/2000/svg">
<path d="M92.8059 15.9491C92.8059 14.5403 93.97 13.3973 95.4033 13.3973C96.8373 13.3973 98 14.5403 98 15.9491C98 17.3578 96.8373 18.5 95.4033 18.5C93.97 18.5 92.8059 17.3578 92.8059 15.9491Z" fill="#86BC24"/>
<path d="M9.96892 9.19142C9.96892 7.57518 9.65104 6.37611 9.01521 5.59494C8.3786 4.81451 7.41427 4.42466 6.11784 4.42466H4.73873V14.3082H5.79387C7.23388 14.3082 8.28914 13.8888 8.96105 13.0471C9.63217 12.2068 9.96892 10.9214 9.96892 9.19142ZM14.8872 9.02309C14.8872 11.9676 14.0815 14.2365 12.4701 15.8291C10.8587 17.4225 8.59354 18.2192 5.67365 18.2192H0V0.574951H6.06969C8.88508 0.574951 11.0586 1.29926 12.5903 2.74716C14.1213 4.19579 14.8872 6.28678 14.8872 9.02309Z" fill="#0F0B0B"/>
<path d="M30.6031 18.2189H35.1178V0.500854H30.6031V18.2189Z" fill="#0F0B0B"/>
<path d="M41.4601 11.61C41.4601 12.7397 41.6104 13.6013 41.9103 14.1934C42.2109 14.7863 42.7144 15.0824 43.4224 15.0824C44.1229 15.0824 44.6182 14.7863 44.9068 14.1934C45.1954 13.6013 45.3389 12.7397 45.3389 11.61C45.3389 10.4862 45.1931 9.63859 44.9007 9.06637C44.6076 8.49267 44.1079 8.20545 43.3992 8.20545C42.7063 8.20545 42.2109 8.49121 41.9103 9.05973C41.6104 9.629 41.4601 10.4788 41.4601 11.61ZM49.9341 11.61C49.9341 13.7623 49.3598 15.4413 48.2084 16.6448C47.0578 17.849 45.4472 18.4515 43.3766 18.4515C41.3909 18.4515 39.8103 17.8357 38.6371 16.6041C37.4625 15.3726 36.8755 13.7084 36.8755 11.61C36.8755 9.46435 37.4505 7.79715 38.6019 6.60841C39.7533 5.41968 41.3676 4.82532 43.4465 4.82532C44.7309 4.82532 45.8673 5.10073 46.8519 5.6508C47.8372 6.20087 48.5978 6.98868 49.1322 8.01498C49.6673 9.03981 49.9341 10.2389 49.9341 11.61Z" fill="#0F0B0B"/>
<path d="M51.727 18.2189H56.2425V11.4379V5.05786H51.727V18.2189Z" fill="#0F0B0B"/>
<path d="M51.7269 3.46593H56.2423V0.5H51.7269V3.46593Z" fill="#0F0B0B"/>
<path d="M65.3904 14.862C66 14.862 66.7259 14.7099 67.5729 14.4079V17.7194C66.9642 17.9822 66.3855 18.1705 65.8354 18.282C65.2852 18.395 64.6396 18.4511 63.9008 18.4511C62.3848 18.4511 61.2921 18.0767 60.6209 17.3295C59.9528 16.5823 59.6176 15.4349 59.6176 13.8866V8.46128H58.0363V5.05898H59.6176V1.69803L64.1677 0.920532V5.05898H67.0485V8.46128H64.1677V13.5839C64.1677 14.436 64.5757 14.862 65.3904 14.862Z" fill="#0F0B0B"/>
<path d="M75.8409 14.862C76.4505 14.862 77.1766 14.7099 78.0236 14.4079V17.7194C77.4156 17.9822 76.836 18.1705 76.2859 18.282C75.735 18.395 75.0916 18.4511 74.3513 18.4511C72.8354 18.4511 71.7427 18.0767 71.073 17.3295C70.4034 16.5823 70.0682 15.4349 70.0682 13.8866V8.46128H68.4861V5.05898H70.0682V1.64709L74.6174 0.920532V5.05898H77.4997V8.46128H74.6174V13.5839C74.6174 14.436 75.0255 14.862 75.8409 14.862Z" fill="#0F0B0B"/>
<path d="M83.7209 10.0065C83.7825 9.2859 83.9923 8.75798 84.35 8.42056C84.7093 8.08387 85.1527 7.91554 85.6833 7.91554C86.262 7.91554 86.722 8.10454 87.0632 8.48553C87.4066 8.8643 87.5855 9.37155 87.5998 10.0065H83.7209ZM90.0883 6.37684C89.015 5.34316 87.4923 4.82556 85.5224 4.82556C83.4518 4.82556 81.8586 5.41992 80.7417 6.60866C79.6256 7.79739 79.0671 9.50299 79.0671 11.7254C79.0671 13.8777 79.6707 15.5375 80.8747 16.7026C82.0795 17.8677 83.7712 18.451 85.9501 18.451C86.9962 18.451 87.8967 18.3809 88.6513 18.2413C89.4014 18.1032 90.1274 17.8537 90.8316 17.4933L90.1379 14.5274C89.6261 14.7327 89.139 14.8907 88.6791 14.9948C88.0147 15.1461 87.2857 15.2222 86.492 15.2222C85.6217 15.2222 84.9348 15.0132 84.4312 14.5953C83.9276 14.1767 83.6593 13.5993 83.6285 12.8639H91.6989V10.8431C91.6989 8.89901 91.1622 7.40979 90.0883 6.37684Z" fill="#0F0B0B"/>
<path d="M20.8792 10.0065C20.9409 9.2859 21.1505 8.75798 21.5082 8.42056C21.8668 8.08387 22.311 7.91554 22.8424 7.91554C23.4196 7.91554 23.8795 8.10454 24.2215 8.48553C24.565 8.8643 24.7431 9.37155 24.7589 10.0065H20.8792ZM27.2473 6.37684C26.1734 5.34316 24.6514 4.82556 22.6808 4.82556C20.6094 4.82556 19.0168 5.41992 17.9007 6.60866C16.7846 7.79739 16.2255 9.50299 16.2255 11.7254C16.2255 13.8777 16.8283 15.5375 18.0338 16.7026C19.2378 17.8677 20.9296 18.451 23.1084 18.451C24.1546 18.451 25.0549 18.3809 25.8095 18.2413C26.5596 18.1032 27.2857 17.8537 27.9907 17.4933L27.2962 14.5274C26.7844 14.7327 26.2973 14.8907 25.8381 14.9948C25.1723 15.1461 24.4439 15.2222 23.6502 15.2222C22.7807 15.2222 22.0931 15.0132 21.5896 14.5953C21.0852 14.1767 20.8177 13.5993 20.7869 12.8639H28.8572V10.8431C28.8572 8.89901 28.3206 7.40979 27.2473 6.37684Z" fill="#0F0B0B"/>
</svg>
