<svg width="105" height="28" viewBox="0 0 105 28" fill="none" xmlns="http://www.w3.org/2000/svg">
<g id="Netflix" clip-path="url(#clip0_3_187)">
<path id="Vector" d="M14.4378 26.1952C12.8583 26.4689 11.251 26.5509 9.58833 26.7695L4.51695 12.1133V27.3985C2.93744 27.5625 1.49646 27.7813 0 28V0H4.21231L9.97623 15.887V0H14.4378V26.1952ZM23.1671 10.2539C24.8853 10.2539 27.5179 10.1719 29.0974 10.1719V14.5468C27.1298 14.5468 24.8298 14.5468 23.1671 14.6288V21.1367C25.7721 20.9727 28.377 20.7538 31.0095 20.6717V24.8824L18.7331 25.8397V0H31.0095V4.37501H23.1671V10.2539ZM47.4979 4.37511H42.8978V24.5001C41.4014 24.5001 39.9049 24.5001 38.4641 24.5546V4.37511H33.864V0H47.4981L47.4979 4.37511ZM54.7029 9.95321H60.7719V14.3281H54.7029V24.254H50.3519V0H62.7394V4.37501H54.7029V9.95321ZM69.9445 20.4258C72.4663 20.4803 75.0156 20.672 77.4821 20.8085V25.1289C73.5194 24.8826 69.5566 24.6369 65.5107 24.5546V0H69.9445V20.4258ZM81.2231 25.4297C82.6364 25.5118 84.1329 25.5939 85.5739 25.7577V0H81.2231V25.4297ZM105 0L99.3744 13.3164L105 28C103.337 27.7813 101.674 27.4805 100.012 27.207L96.825 19.1134L93.583 26.5509C91.9754 26.2773 90.4236 26.1952 88.8166 25.9765L94.5251 13.1522L89.3706 0H94.1368L97.0466 7.35549L100.15 0H105V0Z" fill="#D81F26"/>
</g>
<defs>
<clipPath id="clip0_3_187">
<rect width="105" height="28" fill="white"/>
</clipPath>
</defs>
</svg>
