<svg width="59" height="17" viewBox="0 0 59 17" fill="none" xmlns="http://www.w3.org/2000/svg">
<g clip-path="url(#clip0_3_901)">
<path d="M8.11267 15.4687C7.22514 15.6251 6.32199 15.672 5.38773 15.7968L2.53809 7.42191V16.1563C1.65056 16.25 0.840865 16.375 0 16.5V0.5H2.36691L5.60569 9.57826V0.5H8.11267V15.4687ZM13.0177 6.35938C13.9832 6.35938 15.4624 6.31249 16.35 6.31249V8.81244C15.2444 8.81244 13.952 8.81244 13.0177 8.85932V12.5781C14.4814 12.4844 15.9452 12.3593 17.4244 12.3124V14.7185L10.5262 15.2655V0.5H17.4244V3H13.0177V6.35938ZM26.6893 3.00006H24.1045V14.5C23.2636 14.5 22.4228 14.5 21.6132 14.5312V3.00006H19.0284V0.5H26.6894L26.6893 3.00006ZM30.7378 6.18755H34.148V8.6875H30.7378V14.3594H28.293V0.5H35.2536V3H30.7378V6.18755ZM39.3021 12.1719C40.7192 12.203 42.1516 12.3126 43.5376 12.3906V14.8594C41.3109 14.7186 39.0842 14.5782 36.8108 14.5312V0.5H39.3021V12.1719ZM45.6397 15.0313C46.4338 15.0782 47.2747 15.1251 48.0844 15.2187V0.5H45.6397V15.0313ZM59 0.5L55.839 8.1094L59 16.5C58.0656 16.375 57.1314 16.2031 56.197 16.0468L54.4064 11.4219L52.5847 15.672C51.6814 15.5156 50.8094 15.4687 49.9065 15.3437L53.1141 8.01556L50.2178 0.5H52.8959L54.5309 4.70314L56.275 0.5H59V0.5Z" fill="#D81F26"/>
</g>
<defs>
<clipPath id="clip0_3_901">
<rect width="59" height="16" fill="white" transform="translate(0 0.5)"/>
</clipPath>
</defs>
</svg>
