<svg width="67" height="19" viewBox="0 0 67 19" fill="none" xmlns="http://www.w3.org/2000/svg">
<path d="M8.04004 0.50074H2.82874C2.47207 0.50074 2.16881 0.762012 2.11317 1.11705L0.00547243 14.5896C-0.036448 14.8553 0.167813 15.0951 0.435235 15.0951H2.92319C3.2798 15.0951 3.58305 14.8339 3.6387 14.4782L4.20714 10.8445C4.26204 10.4887 4.56604 10.2275 4.9219 10.2275H6.57165C10.0045 10.2275 11.9857 8.55275 12.5031 5.23395C12.7362 3.78196 12.513 2.64116 11.8386 1.8422C11.0979 0.964777 9.78424 0.50074 8.04004 0.50074ZM8.64128 5.42143C8.35628 7.3067 6.92751 7.3067 5.54599 7.3067H4.75962L5.31129 3.78586C5.34409 3.57303 5.52693 3.41631 5.74032 3.41631H6.10071C7.04177 3.41631 7.92956 3.41631 8.38825 3.9571C8.66183 4.2798 8.74567 4.75916 8.64128 5.42143Z" fill="#283B82"/>
<path d="M23.6175 5.36077H21.1221C20.9095 5.36077 20.7259 5.5175 20.693 5.73032L20.5826 6.43402L20.4081 6.17893C19.8678 5.38839 18.663 5.12417 17.4606 5.12417C14.703 5.12417 12.3476 7.2299 11.8889 10.1838C11.6504 11.6572 11.9895 13.0662 12.8185 14.0487C13.579 14.9522 14.6671 15.3286 15.9618 15.3286C18.1838 15.3286 19.416 13.8883 19.416 13.8883L19.3047 14.5873C19.2627 14.8547 19.467 15.0944 19.733 15.0944H21.9808C22.3382 15.0944 22.6399 14.8331 22.6964 14.4775L24.0451 5.86626C24.0878 5.60121 23.8843 5.36077 23.6175 5.36077ZM20.1391 10.2575C19.8984 11.6949 18.7667 12.6599 17.3236 12.6599C16.5989 12.6599 16.0197 12.4255 15.6478 11.9814C15.279 11.5405 15.1388 10.9128 15.2562 10.2137C15.4809 8.78864 16.6316 7.79229 18.0527 7.79229C18.7614 7.79229 19.3374 8.02964 19.7169 8.47746C20.0972 8.92995 20.248 9.56147 20.1391 10.2575Z" fill="#283B82"/>
<path d="M36.9084 5.3607H34.4007C34.1614 5.3607 33.9366 5.48055 33.801 5.6811L30.3422 10.8175L28.8762 5.88159C28.784 5.57271 28.5013 5.3607 28.1813 5.3607H25.717C25.4174 5.3607 25.2095 5.65568 25.3047 5.93994L28.067 14.1125L25.4701 17.8085C25.2658 18.0996 25.4715 18.5 25.8244 18.5H28.3291C28.5668 18.5 28.7894 18.3832 28.9242 18.1865L37.265 6.04832C37.4647 5.75786 37.2598 5.3607 36.9084 5.3607Z" fill="#283B82"/>
<path d="M45.2112 0.50074H39.9991C39.6433 0.50074 39.34 0.762012 39.2843 1.11705L37.1766 14.5896C37.1348 14.8553 37.3389 15.0951 37.6049 15.0951H40.2796C40.5279 15.0951 40.7406 14.9123 40.7794 14.6634L41.3775 10.8445C41.4324 10.4887 41.7365 10.2275 42.0923 10.2275H43.7414C47.1748 10.2275 49.1554 8.55275 49.6735 5.23395C49.9075 3.78196 49.6827 2.64116 49.0083 1.8422C48.2684 0.964777 46.9554 0.50074 45.2112 0.50074ZM45.8125 5.42143C45.5282 7.3067 44.0996 7.3067 42.7172 7.3067H41.9316L42.4841 3.78586C42.5168 3.57303 42.6981 3.41631 42.9122 3.41631H43.2727C44.2131 3.41631 45.1015 3.41631 45.5602 3.9571C45.8338 4.2798 45.9168 4.75916 45.8125 5.42143Z" fill="#469BDB"/>
<path d="M60.7881 5.36077H58.2941C58.0799 5.36077 57.8977 5.5175 57.8658 5.73032L57.7553 6.43402L57.5801 6.17893C57.0398 5.38839 55.8358 5.12417 54.6334 5.12417C51.8756 5.12417 49.5212 7.2299 49.0623 10.1838C48.8246 11.6572 49.1622 13.0662 49.9913 14.0487C50.7533 14.9522 51.8398 15.3286 53.1345 15.3286C55.3565 15.3286 56.5886 13.8883 56.5886 13.8883L56.4773 14.5873C56.4355 14.8547 56.6397 15.0944 56.9072 15.0944H59.1544C59.5102 15.0944 59.8135 14.8331 59.8692 14.4775L61.2186 5.86626C61.2597 5.60121 61.0555 5.36077 60.7881 5.36077ZM57.3095 10.2575C57.0702 11.6949 55.9371 12.6599 54.494 12.6599C53.7707 12.6599 53.1901 12.4255 52.8182 11.9814C52.4496 11.5405 52.3108 10.9128 52.4267 10.2137C52.6529 8.78864 53.8021 7.79229 55.2232 7.79229C55.9318 7.79229 56.5079 8.02964 56.8874 8.47746C57.2691 8.92995 57.42 9.56147 57.3095 10.2575Z" fill="#469BDB"/>
<path d="M63.7302 0.870367L61.5912 14.5896C61.5493 14.8553 61.7535 15.0951 62.0195 15.0951H64.1698C64.5272 15.0951 64.8305 14.8339 64.8854 14.4782L66.9945 1.00645C67.0365 0.740533 66.8323 0.500101 66.5663 0.500101H64.1583C63.9458 0.500742 63.7629 0.657664 63.7302 0.870367Z" fill="#469BDB"/>
</svg>
