<svg width="92" height="22" viewBox="0 0 92 22" fill="none" xmlns="http://www.w3.org/2000/svg">
<path fill-rule="evenodd" clip-rule="evenodd" d="M62.7084 0.5C62.0144 0.501498 61.3608 0.919521 61.093 1.60574L54.2772 19.1297C53.9302 20.0242 54.3714 21.0325 55.2643 21.3816C55.4722 21.4625 55.6846 21.5 55.894 21.5C56.588 21.5 57.2446 21.079 57.5108 20.3928L58.658 17.4441H66.7946L67.9433 20.3928C68.208 21.079 68.8646 21.5 69.5601 21.5C69.768 21.5 69.9819 21.4625 70.1898 21.3816C71.0827 21.0325 71.5255 20.0242 71.1755 19.1297L64.3596 1.60574C64.0964 0.925514 63.4517 0.50899 62.7637 0.5H62.7084ZM62.7263 6.98459L65.441 13.9666H60.0116L62.7263 6.98459ZM0.00747846 7.84011C0.00299138 7.89854 0 7.95548 0 8.01541V19.6811C0 20.643 0.776264 21.4206 1.735 21.4206C2.69524 21.4206 3.4715 20.643 3.4715 19.6811V14.2842C4.67404 15.0574 6.1099 15.5068 7.65346 15.5068C11.8683 15.5068 15.2994 12.1477 15.2994 8.01541C15.2994 3.88313 11.8683 0.522474 7.65346 0.522474C3.49394 0.522474 0.104698 3.78874 0.00747846 7.84011ZM3.47599 8.01541C3.47599 5.80094 5.34859 4.0015 7.65345 4.0015C9.95532 4.0015 11.8279 5.80094 11.8279 8.01541C11.8279 10.2299 9.95532 12.0293 7.65345 12.0293C5.34859 12.0293 3.47599 10.2299 3.47599 8.01541ZM18.1562 2.23652C18.1562 3.19542 18.9459 3.96404 19.9032 3.96404C20.8619 3.96404 21.6277 3.19542 21.6277 2.23652C21.6277 1.30158 20.8619 0.534461 19.9032 0.534461C18.9459 0.534461 18.1562 1.30158 18.1562 2.23652ZM84.1745 2.28296V15.3181C84.1745 18.6832 86.9057 21.4206 90.265 21.4206C91.2222 21.4206 92 20.643 92 19.6811C92 18.7207 91.2222 17.9431 90.265 17.9431C88.8202 17.9431 87.646 16.7654 87.646 15.3181V9.53468H90.265C91.2222 9.53468 92 8.75706 92 7.79516C92 6.83476 91.2222 6.05715 90.265 6.05715H87.646V2.28296C87.646 1.32256 86.8683 0.544949 85.9095 0.544949C84.9523 0.544949 84.1745 1.32256 84.1745 2.28296ZM76.9459 6.91117C76.6437 6.40176 76.0903 6.05715 75.4532 6.05715C74.4959 6.05715 73.7182 6.83476 73.7182 7.79516V19.7515C73.7182 20.7104 74.4959 21.4895 75.4532 21.4895C76.4119 21.4895 77.1912 20.7104 77.1912 19.7515V12.3664C77.1912 10.8052 78.5388 9.53468 80.196 9.53468C81.1517 9.53468 81.931 8.75706 81.931 7.79516C81.931 6.83476 81.1517 6.05715 80.196 6.05715C79.0114 6.05715 77.9016 6.36879 76.9459 6.91117ZM42.1247 7.57791C41.2617 8.40497 40.7666 9.51819 40.7666 10.6359C40.7666 14.2992 44.7092 15.1772 46.0045 15.4664C48.5232 16.0268 48.5232 16.6396 48.5232 16.9033C48.5232 17.0336 48.4499 17.2464 48.2376 17.4486C47.8651 17.8082 47.2399 17.988 46.4607 17.9536C45.7727 17.9221 44.8977 17.7468 43.6293 16.665C42.8979 16.0417 41.8031 16.1271 41.1824 16.8598C40.5602 17.5895 40.6469 18.6862 41.3768 19.3095C42.9787 20.6789 44.5477 21.3517 46.3111 21.4266C46.4203 21.4311 46.528 21.4341 46.6357 21.4341C48.2301 21.4341 49.6405 20.9172 50.6366 19.9598C51.4997 19.1327 51.9947 18.018 51.9947 16.9033C51.9947 13.2384 48.0536 12.3604 46.7583 12.0713C44.2381 11.5109 44.2381 10.8966 44.2381 10.6359C44.2381 10.5041 44.3129 10.2913 44.5252 10.086C44.8992 9.72945 45.5289 9.56015 46.3021 9.58412C46.9901 9.61408 47.8651 9.78938 49.135 10.8741C49.8634 11.4959 50.9582 11.409 51.5804 10.6779C52.2011 9.9482 52.1159 8.85146 51.3875 8.22817C49.7841 6.85873 48.2151 6.1875 46.4502 6.11109C46.3395 6.10659 46.2303 6.1036 46.1212 6.1036C44.5342 6.1036 43.1193 6.6235 42.1247 7.57791ZM26.6966 8.35402C26.6876 8.36152 26.6831 8.36901 26.6772 8.375C23.7232 11.3566 23.7232 16.1841 26.6757 19.1672C26.6831 19.1732 26.6876 19.1821 26.6966 19.1881C28.1878 20.6819 30.1472 21.4266 32.1035 21.4266C34.0629 21.4266 36.0192 20.6819 37.5105 19.1881C38.188 18.5109 38.188 17.4082 37.5105 16.731C36.8329 16.0507 35.7336 16.0522 35.0575 16.7295C33.4287 18.3611 30.7783 18.3611 29.151 16.7295C29.1495 16.7265 29.1451 16.725 29.1436 16.722C27.5252 15.0918 27.5252 12.4488 29.1436 10.8202C29.1451 10.8172 29.1495 10.8157 29.151 10.8142C30.7783 9.18258 33.4287 9.18258 35.0575 10.8142C35.3955 11.1513 35.8398 11.3236 36.284 11.3236C36.7282 11.3236 37.1724 11.1513 37.5105 10.8127C38.188 10.134 38.188 9.03425 37.5105 8.35402C36.0207 6.86173 34.0614 6.11408 32.1035 6.11408C30.1442 6.11408 28.1863 6.86173 26.6966 8.35402ZM18.1547 7.88506V19.6811C18.1547 20.643 18.934 21.4206 19.8912 21.4206C20.8499 21.4206 21.6277 20.643 21.6277 19.6811V7.88506C21.6277 6.92466 20.8499 6.14705 19.8912 6.14705C18.934 6.14705 18.1547 6.92466 18.1547 7.88506Z" fill="url(#paint0_linear_3_865)"/>
<defs>
<linearGradient id="paint0_linear_3_865" x1="-41.3662" y1="9.33343" x2="94.6497" y2="55.5519" gradientUnits="userSpaceOnUse">
<stop stop-color="#3023AE"/>
<stop offset="1" stop-color="#C86DD7"/>
</linearGradient>
</defs>
</svg>
