<svg width="82" height="21" viewBox="0 0 82 21" fill="none" xmlns="http://www.w3.org/2000/svg">
<g id="Pinterest">
<path id="path12" d="M32.2848 7.6402H34.8802V15.9598H32.2848V7.6402Z" fill="#E60023"/>
<path id="path24" d="M35.422 7.64019H37.9218V8.77765H37.9695C38.5746 7.8839 39.3547 7.39649 40.4853 7.39649C42.2685 7.39649 43.3193 8.69641 43.3193 10.5488V15.9598H40.7241V11.0851C40.7241 10.2076 40.2942 9.60631 39.4503 9.60631C38.5906 9.60631 38.0173 10.3376 38.0173 11.3613V15.9598H35.422V7.64019Z" fill="#E60023"/>
<path id="path28" d="M35.1392 5.41434C35.1392 4.53682 34.4422 3.82555 33.5824 3.82555C32.7226 3.82555 32.0256 4.53682 32.0256 5.41434C32.0256 6.29178 32.7226 7.00305 33.5824 7.00305C34.4422 7.00305 35.1392 6.29178 35.1392 5.41434Z" fill="#E60023"/>
<path id="path32" d="M61.5724 7.5201C61.4984 7.5133 61.4135 7.51027 61.3141 7.51027C60.3269 7.51027 59.6583 7.94899 59.085 8.9402H59.0373V7.64028H56.5535V15.9598H59.1487V12.2225C59.1487 10.4909 60.0884 9.68844 61.5724 9.82845V7.5201Z" fill="#E60023"/>
<path id="path36" d="M74.3084 10.7113C73.2735 10.5164 72.35 10.4351 72.35 9.85017C72.35 9.33013 72.8437 9.08643 73.4805 9.08643C74.1969 9.08643 74.6906 9.3139 74.7861 10.0614H77.1744C77.0471 8.42024 75.8051 7.39648 73.4965 7.39648C71.5699 7.39648 69.9777 8.30646 69.9777 10.0614C69.9777 12.0112 71.4903 12.4012 72.9074 12.645C73.99 12.84 74.9772 12.9213 74.9772 13.6687C74.9772 14.205 74.4836 14.4974 73.7034 14.4974C72.9207 14.4974 72.403 14.1595 72.2443 13.4738H69.7713C69.9533 15.184 71.4243 16.2198 73.7193 16.2198C75.8529 16.2198 77.4291 15.2774 77.4291 13.4575C77.4291 11.3288 75.7414 10.9551 74.3084 10.7113Z" fill="#E60023"/>
<path id="path40" d="M65.5984 9.28123C66.4422 9.28123 67.0472 9.91496 67.1428 10.9063H63.9265C64.1016 9.91496 64.6112 9.28123 65.5984 9.28123ZM65.7416 14.3022C64.6748 14.3022 64.0698 13.6036 63.9106 12.4823H69.7699C69.7858 10.7925 69.3082 9.34624 68.3369 8.43634C67.6363 7.78638 66.7129 7.39636 65.5505 7.39636C63.0667 7.39636 61.3631 9.29746 61.3631 11.7837C61.3631 14.3022 63.019 16.2035 65.7098 16.2035C66.7446 16.2035 67.5727 15.9272 68.2573 15.4398C68.9738 14.936 69.4514 14.2211 69.6265 13.4736H67.095C66.872 13.9936 66.4263 14.3022 65.7416 14.3022Z" fill="#E60023"/>
<path id="path44" d="M82 13.9981C81.8798 14.0029 81.7183 14.01 81.57 14.01C81.0126 14.01 80.6624 13.8475 80.6624 13.1975V9.29767H82V7.64026H80.6624V5.00788H78.1308V7.64026H77.3342V9.29767H78.1308V13.7662C78.1308 15.5537 79.2135 16.0574 80.7261 16.0574C81.3032 16.0574 81.7394 16.0133 82 15.9614V13.9981Z" fill="#E60023"/>
<path id="path48" d="M47.9541 14.0016C47.8505 14.0057 47.731 14.0098 47.6194 14.0098C47.0622 14.0098 46.7118 13.8472 46.7118 13.1973V9.29742H47.9541V7.64002H46.7118V5.00763H44.1802V7.64002H43.3361V9.29742H44.1802V13.766C44.1802 15.5535 45.2629 16.0571 46.7755 16.0571C47.2873 16.0571 47.688 16.0224 47.9541 15.9784V14.0016Z" fill="#E60023"/>
<path id="path52" d="M53.6071 10.9063C53.5116 9.91505 52.9064 9.28123 52.0626 9.28123C51.0754 9.28123 50.566 9.91505 50.3908 10.9063H53.6071ZM47.8274 11.7837C47.8274 9.29755 49.531 7.39644 52.0149 7.39644C53.1771 7.39644 54.1007 7.78638 54.8012 8.43634C55.7725 9.34632 56.2501 10.7925 56.2342 12.4824H50.375C50.5341 13.6036 51.1391 14.3023 52.206 14.3023C52.8905 14.3023 53.3364 13.9936 53.5592 13.4736H56.0909C55.9157 14.2211 55.4381 14.936 54.7215 15.4398C54.037 15.9272 53.209 16.2035 52.1741 16.2035C49.4832 16.2035 47.8274 14.3023 47.8274 11.7837Z" fill="#E60023"/>
<path id="path56" d="M27.7777 9.8014C28.7968 9.8014 29.3699 9.1839 29.3699 8.25761C29.3699 7.33148 28.7808 6.76276 27.7777 6.76276H25.7874V9.8014H27.7777ZM23.1599 4.34162H27.6667C29.0519 4.34162 30.0709 4.73156 30.7715 5.41406C31.5039 6.11272 31.9179 7.10401 31.9179 8.27392C31.9179 10.5001 30.4053 12.0763 28.0647 12.0763H25.7874V15.9598H23.1599V4.34162Z" fill="#E60023"/>
<path id="path60" d="M19.5971 10.5C19.5971 16.0228 15.2101 20.5 9.79856 20.5C4.38699 20.5 0 16.0228 0 10.5C0 4.9771 4.38699 0.5 9.79856 0.5C15.2101 0.5 19.5971 4.9771 19.5971 10.5Z" fill="white"/>
<path id="path64" d="M9.79856 0.5C4.38699 0.5 0 4.97718 0 10.5C0 14.7365 2.58273 18.3581 6.22771 19.8152C6.14209 19.024 6.06466 17.8072 6.26169 16.9435C6.43976 16.163 7.41069 11.9728 7.41069 11.9728C7.41069 11.9728 7.11759 11.3737 7.11759 10.4881C7.11759 9.09761 7.90731 8.05951 8.89061 8.05951C9.72659 8.05951 10.1304 8.70005 10.1304 9.46813C10.1304 10.3261 9.5951 11.6089 9.31888 12.7977C9.08804 13.793 9.80796 14.6047 10.7699 14.6047C12.5114 14.6047 13.8501 12.7306 13.8501 10.0255C13.8501 7.63112 12.1643 5.95708 9.75719 5.95708C6.96916 5.95708 5.33269 8.09124 5.33269 10.2968C5.33269 11.1563 5.65711 12.0779 6.06193 12.5789C6.14201 12.6779 6.15374 12.7647 6.12988 12.8657C6.0555 13.1816 5.8902 13.8608 5.85775 13.9998C5.81502 14.1829 5.71575 14.2217 5.53004 14.1335C4.30627 13.5522 3.54113 11.7261 3.54113 10.2595C3.54113 7.10502 5.78691 4.20803 10.0154 4.20803C13.4145 4.20803 16.0561 6.68 16.0561 9.98357C16.0561 13.4299 13.9268 16.2036 10.9715 16.2036C9.97856 16.2036 9.04514 15.6771 8.72563 15.0553C8.72563 15.0553 8.2343 16.9646 8.11518 17.4325C7.89398 18.3011 7.29679 19.3898 6.89735 20.0541C7.81414 20.3438 8.78844 20.5 9.79856 20.5C15.2102 20.5 19.5972 16.0228 19.5972 10.5C19.5972 4.97718 15.2102 0.5 9.79856 0.5Z" fill="#E60023"/>
</g>
</svg>
