<svg width="70" height="30" viewBox="0 0 70 30" fill="none" xmlns="http://www.w3.org/2000/svg">
<g clip-path="url(#clip0_3_882)">
<path d="M20.4542 29.2072C16.9348 28.0031 14.5977 25.4827 12.893 21.0022C12.4531 19.7982 11.9856 18.398 11.9032 17.922C11.7382 17.0539 11.7107 17.0259 10.8858 17.3059C9.56603 17.7539 9.42856 17.9499 8.93363 19.9662C8.16375 23.0465 7.8338 23.6346 6.76148 23.8305C6.18408 23.9427 5.55168 23.8865 5.19423 23.6905C4.67182 23.4106 4.61683 23.2145 4.7818 22.1223C4.86428 21.4503 5.3592 19.4061 5.85413 17.5859C7.09143 13.1895 7.42138 11.5933 7.64134 9.26906C7.80632 7.44886 7.86131 7.28084 8.60368 6.91681C9.62102 6.41276 10.6933 6.77681 11.1608 7.75691C11.4632 8.37296 11.4082 9.01704 10.8858 11.5933C10.5284 13.3295 10.3359 14.7296 10.4734 14.7296C11.0783 14.7296 13.6904 13.1615 14.6252 12.2374C16.7973 10.1652 17.3198 7.61688 16.1375 5.20863C15.2851 3.47246 14.1028 2.8844 11.8757 3.05242C8.4662 3.30444 5.38671 5.74068 3.65449 9.57708C2.69214 11.6773 2.66464 11.7053 1.81228 11.5373C-2.11958 10.7252 0.767455 4.67658 6.43153 1.9603C10.1984 0.112111 13.9653 0.0281016 17.0998 1.65227C20.7293 3.58447 21.8841 7.81291 19.7669 11.5653C18.942 13.0214 17.3198 14.5616 15.725 15.4017C15.2301 15.6537 14.8177 15.9618 14.8177 16.1018C14.8177 16.4938 16.11 20.1902 16.5499 21.0864C17.3748 22.7104 19.7119 24.9786 21.1967 25.6788C22.9289 26.4629 26.0633 26.5468 27.9606 25.8468L29.1154 25.3987V26.0987C29.1154 27.1069 28.3454 28.1151 27.0807 28.7871C25.6785 29.5151 22.049 29.7393 20.4542 29.2072Z" fill="#DE5725"/>
<path d="M23.6438 23.5785C21.3067 22.7945 19.9868 20.7502 19.9868 17.9219C19.9868 14.4495 21.7742 11.3972 24.5787 10.0811C27.823 8.51292 31.3151 9.94107 31.3151 12.8254C31.3151 15.4856 29.3353 17.2218 25.5684 17.8379C23.8362 18.1459 23.6163 18.2299 23.6163 18.79C23.6163 19.126 23.8912 19.8261 24.2487 20.3581C24.7986 21.2263 25.0185 21.3103 26.3384 21.3942C30.1878 21.6182 33.5146 17.0818 33.5146 11.6493C33.5146 10.0811 33.9271 9.68904 35.5493 9.68904C36.2916 9.68904 36.6492 9.85706 36.9792 10.3891C37.3915 11.0612 37.3915 11.2292 36.9792 12.9934C36.1542 16.5498 35.7142 18.958 35.7142 20.0501C35.7142 22.7103 38.2164 21.0301 39.9761 17.2218C40.8009 15.4016 40.8284 14.7296 40.1136 13.8335C39.2063 12.6573 38.9588 11.6772 39.2888 10.6691C39.7837 9.10098 41.8458 8.62494 43.0006 9.80105C43.9355 10.7811 44.1004 12.1253 43.5505 14.5055C42.0384 20.7222 37.2815 25.1187 33.7072 23.5785C33.1023 23.3264 32.5524 22.8505 32.3598 22.3744C32.1674 21.9543 32.0025 21.5342 31.9475 21.4782C31.92 21.4222 31.3976 21.7024 30.8477 22.0943C28.5381 23.7185 25.7885 24.2785 23.6438 23.5785ZM26.6407 15.0096C27.3556 14.6175 28.0981 12.9374 27.878 12.1813C27.6581 11.4812 26.6407 11.4812 25.706 12.2373C24.8811 12.8814 23.5064 15.4576 23.7537 15.8497C23.8912 16.1017 25.4859 15.6257 26.6407 15.0096ZM45.9702 23.6905C44.5129 23.1024 43.963 21.0301 44.6228 18.51C45.3651 15.4576 45.8876 12.6573 45.8876 11.4532C45.8876 10.0531 46.4375 9.60504 48.0323 9.74504C49.8746 9.88507 49.9571 11.2292 48.5272 16.8298C47.9773 18.958 47.9498 21.1423 48.4722 21.3383C50.0945 21.9823 52.899 16.4937 53.1739 12.1813C53.284 10.1371 53.6688 9.68904 55.2911 9.68904C56.0886 9.68904 56.4184 9.85706 56.7485 10.3611C57.1333 10.9492 57.1333 11.2012 56.721 13.0774C55.4285 18.986 55.2087 20.9462 55.7861 21.3103C56.226 21.5902 57.9857 20.3581 58.0957 19.6861C58.1781 19.35 58.2881 18.2859 58.3432 17.3618C58.5081 15.2336 59.3329 13.2454 60.6803 11.8173C64.1722 8.12088 69.8088 8.87696 69.8088 13.0494C69.8088 15.6537 67.9117 17.2778 64.1997 17.8659C61.9176 18.2579 61.8351 18.3419 62.4125 20.0221C63.0174 21.8143 65.1896 22.0103 67.1966 20.4701C67.8842 19.9101 68.5715 19.5461 68.709 19.6301C69.2039 19.9381 69.0115 21.7024 68.4616 22.2624C67.3343 23.4105 66.1793 23.8025 64.0348 23.8025C61.8076 23.8025 60.8177 23.4385 59.6629 22.1782L58.9756 21.4502L58.1506 22.2624C55.6486 24.6706 52.6515 24.3905 51.9366 21.7024L51.6343 20.5542L50.8093 21.6744C49.9846 22.8225 48.0872 23.9986 47.0975 23.9426C46.8225 23.9426 46.3001 23.8304 45.9702 23.6905ZM63.9523 15.5416C65.327 15.0096 66.2344 13.9175 66.2344 12.7134C66.2344 11.7333 66.1795 11.6493 65.4644 11.6493C64.5297 11.6493 63.1823 12.9934 62.55 14.5615C62.3026 15.1496 62.11 15.6817 62.11 15.7377C62.11 15.9617 63.1823 15.8497 63.9523 15.5416Z" fill="#DE5725"/>
</g>
<defs>
<clipPath id="clip0_3_882">
<rect width="70" height="29" fill="white" transform="translate(0 0.5)"/>
</clipPath>
</defs>
</svg>
