<svg width="100" height="22" viewBox="0 0 100 22" fill="none" xmlns="http://www.w3.org/2000/svg">
<g id="Scratch">
<path id="scratch" fill-rule="evenodd" clip-rule="evenodd" d="M0 17.4602C0.842228 19.1339 2.79837 20.3054 5.65108 20.3054C9.56336 20.3054 11.275 18.2691 11.275 15.8422C11.275 13.8059 10.1339 12.5785 7.60722 11.658C5.29789 10.7933 4.1568 10.6538 4.1568 9.59377C4.1568 8.8406 4.78168 8.33849 5.81409 8.33849C7.30837 8.33849 8.2321 8.8685 8.80264 9.56588L10.6229 7.58533C9.67204 6.35795 8.15059 5.46531 5.86843 5.46531C3.26024 5.46531 1.03241 6.97164 1.03241 9.67745C1.03241 11.8254 2.39084 12.8854 4.40132 13.6385C6.52047 14.4196 8.15059 14.6986 8.15059 15.8701C8.15059 16.5954 7.58005 17.4044 5.70542 17.4044C3.93945 17.4044 2.66253 16.5954 2.09199 15.647L0 17.4602ZM12.9341 12.8854C12.9341 17.1812 16.2487 20.3333 20.3783 20.3333C22.4159 20.3333 24.2906 19.636 25.8664 17.9065L23.8559 15.7586C22.9322 16.7349 21.8454 17.2928 20.3783 17.2928C17.9875 17.2928 16.1672 15.4238 16.1672 12.8854C16.1672 10.3469 17.9875 8.47797 20.3783 8.47797C21.8454 8.47797 22.9322 9.03587 23.8559 10.0122L25.8664 7.86428C24.2906 6.13479 22.4159 5.43741 20.3783 5.43741C16.2487 5.43741 12.9341 8.58955 12.9341 12.8854ZM28.1504 19.9428H31.3834V12.5506C31.3834 10.2354 32.8234 8.78481 35.0784 8.78481C35.5946 8.78481 36.0564 8.8406 36.4368 8.92429V5.68847C36.3009 5.66057 35.8119 5.60478 35.4587 5.60478C33.5026 5.60478 32.0355 6.52532 31.3834 7.97586V5.88374H28.1504V19.9428ZM37.5525 12.9133C37.5525 8.75692 40.5411 5.57689 44.399 5.57689C46.7084 5.57689 48.2841 6.6369 48.7732 7.92007V5.88374H52.0334V15.7028C52.0334 16.8744 52.3051 17.3486 53.0387 17.3486C53.2288 17.3486 53.5277 17.3207 53.7179 17.2928V19.9986C53.3103 20.166 52.6855 20.2218 52.1149 20.2218C51.5172 20.2218 50.8108 20.1381 50.2131 19.7754C49.7784 19.4686 49.2894 18.9665 49.0992 18.0739C48.3113 19.2733 46.8714 20.2776 44.399 20.2776C40.5411 20.2776 37.5525 17.0975 37.5525 12.9133ZM40.7856 12.9133C40.7856 15.368 42.5244 17.2091 44.8337 17.2091C47.1974 17.2091 49.0177 15.368 49.0177 12.9133C49.0177 10.4585 47.1974 8.61744 44.8337 8.61744C42.5244 8.61744 40.7856 10.4585 40.7856 12.9133ZM56.3822 15.5633C56.3822 19.7754 58.9361 20.3333 60.8107 20.3333C61.4356 20.3333 62.0333 20.2776 62.4952 20.166V17.1812C62.0876 17.2649 61.7073 17.2928 61.3541 17.2928C60.1858 17.2928 59.6424 16.7349 59.6424 15.2007V8.92429H62.6582V5.88374H59.6424V0.5H56.3822V5.88374H54.6706V8.92429H56.3822V15.5633ZM64.2358 12.8854C64.2358 17.1812 67.5503 20.3333 71.68 20.3333C73.7176 20.3333 75.5923 19.636 77.168 17.9065L75.1576 15.7586C74.2338 16.7349 73.1471 17.2928 71.68 17.2928C69.2891 17.2928 67.4688 15.4238 67.4688 12.8854C67.4688 10.3469 69.2891 8.47797 71.68 8.47797C73.1471 8.47797 74.2338 9.03587 75.1576 10.0122L77.168 7.86428C75.5923 6.13479 73.7176 5.43741 71.68 5.43741C67.5503 5.43741 64.2358 8.58955 64.2358 12.8854ZM79.452 19.9428H82.6851V11.8533C82.6851 9.92851 83.9349 8.58955 85.7008 8.58955C87.4396 8.58955 88.4448 9.81693 88.4448 11.7138V16.4002C88.4448 19.3291 89.9663 20.0823 91.6507 20.0823C92.4115 20.0823 92.9005 19.9707 93.0635 19.9149V17.0975C92.9548 17.1254 92.7647 17.1533 92.6017 17.1533C91.8409 17.1533 91.6779 16.707 91.6779 15.6749V11.2396C91.6779 7.7806 89.8576 5.60478 86.6789 5.60478C84.7499 5.60478 83.2828 6.52532 82.6851 7.83639V0.5H79.452V19.9428Z" fill="#171DA1"/>
<path id="Oval 2" d="M97.6879 21.5C98.9648 21.5 100 20.4554 100 19.1667C100 17.878 98.9648 16.8334 97.6879 16.8334C96.4109 16.8334 95.3757 17.878 95.3757 19.1667C95.3757 20.4554 96.4109 21.5 97.6879 21.5Z" fill="#37EDA4"/>
</g>
</svg>
