<svg width="56" height="19" viewBox="0 0 56 19" fill="none" xmlns="http://www.w3.org/2000/svg">
<path d="M36.4748 0.5C32.4986 0.5 28.9453 2.54454 28.9453 6.322C28.9453 10.654 35.2473 10.9532 35.2473 13.1295C35.2473 14.0459 34.1887 14.8661 32.3807 14.8661C29.8149 14.8661 27.8972 13.72 27.8972 13.72L27.0766 17.5318C27.0766 17.5318 29.2858 18.5 32.2188 18.5C36.5661 18.5 39.9869 16.3551 39.9869 12.513C39.9869 7.93546 33.6586 7.64514 33.6586 5.62518C33.6586 4.90736 34.5276 4.12084 36.3304 4.12084C38.3645 4.12084 40.0241 4.95441 40.0241 4.95441L40.8271 1.27279C40.8271 1.27279 39.0214 0.5 36.4748 0.5ZM0.0962801 0.777859L0 1.33357C0 1.33357 1.6728 1.63729 3.17943 2.24313C5.11934 2.93784 5.25753 3.34227 5.58425 4.59841L9.14442 18.2135H13.9168L21.2691 0.777859H16.5077L11.7834 12.6324L9.85558 2.58394C9.67878 1.4339 8.78326 0.777859 7.68709 0.777859H0.0962801ZM23.1838 0.777859L19.4486 18.2135H23.9891L27.7112 0.777859H23.1838ZM48.5077 0.777859C47.4128 0.777859 46.8327 1.35937 46.407 2.37554L39.7549 18.2135H44.5164L45.4376 15.5738H51.2385L51.7987 18.2135H56L52.3348 0.777859H48.5077ZM49.1269 5.48842L50.5383 12.0311H46.7571L49.1269 5.48842Z" fill="#1434CB"/>
</svg>
