<svg width="120" height="31" viewBox="0 0 120 31" fill="none" xmlns="http://www.w3.org/2000/svg">
<g id="Webflow" clip-path="url(#clip0_3_180)">
<path id="Vector" d="M38.748 12.1225C38.748 9.91146 36.6547 7.56321 33.0323 7.56321C28.9645 7.56321 24.4959 10.6281 23.8129 16.7427C23.1152 22.9183 26.8564 25.6631 30.6272 25.6631C34.3981 25.6631 36.3726 24.1535 38.3917 22.1407C36.6547 19.8992 34.413 20.9361 33.9824 21.1648C33.5074 21.4088 32.8987 21.7442 31.6516 21.7442C30.1967 21.7442 28.7121 21.0733 28.7121 18.2828C38.0354 17.3374 38.748 14.3335 38.748 12.1225ZM34.1309 12.4884C34.0715 13.1746 33.8043 14.3487 29.0833 15.0044C30.0779 11.3753 31.9782 11.1008 32.8541 11.1008C33.6707 11.1008 34.1903 11.7565 34.1309 12.4884ZM18.3348 13.0831C18.3348 13.0831 16.3306 19.5485 16.1673 20.0821C16.1079 19.5332 14.6381 7.92917 14.6381 7.92917C11.2236 7.92917 9.3975 10.4299 8.43251 13.0679C8.43251 13.0679 5.99777 19.5485 5.78993 20.0974C5.77508 19.5942 5.41878 13.1441 5.41878 13.1441C5.21094 9.91146 2.33082 7.94442 0 7.94442L2.82073 25.5258C6.39861 25.5106 8.32859 23.0251 9.33812 20.3871C9.33812 20.3871 11.4908 14.669 11.5799 14.4097C11.5947 14.6537 13.1238 25.5258 13.1238 25.5258C16.7166 25.5258 18.6465 23.1928 19.6858 20.6463L24.7185 7.94442C21.1704 7.94442 19.2998 10.4299 18.3348 13.0831ZM51.9312 7.53271C49.7192 7.53271 48.0267 8.76783 46.6015 10.5824V10.5671L47.8783 0C44.9388 0 42.5486 2.62272 42.0883 6.52632L39.8614 25.3886C41.5539 25.3886 43.3502 24.8854 44.3152 23.6045C45.1763 24.7482 46.4679 25.6631 48.383 25.6631C53.3416 25.6631 56.7413 19.7467 56.7413 14.1963C56.7116 9.13379 54.3214 7.53271 51.9312 7.53271ZM51.471 16.6055C50.9514 19.7009 49.2738 21.8052 47.6556 21.8052C46.0225 21.8052 45.3248 21.058 45.3248 21.058C45.6365 18.3438 45.8295 16.6818 46.4234 15.2484C47.0172 13.8151 48.4276 11.5278 49.8973 11.5278C51.3374 11.5278 51.9906 13.4948 51.471 16.6055ZM69.1229 7.94442H65.6637L65.6786 7.76144C65.9161 5.44368 66.4506 4.22381 68.2172 4.02558C69.4198 3.90359 69.9542 3.26316 70.0878 2.56173C70.1918 2.01279 70.5184 0.106739 70.5184 0.106739C63.5705 0.0609936 61.3881 3.14117 60.824 7.83768L60.8091 7.94442H60.7349C59.6066 7.94442 58.3595 9.25578 58.1517 10.9179L58.0774 11.5278H60.3934L58.4486 28.0266L57.8548 30.9848C57.929 30.9848 58.0181 31 58.0923 31C61.3436 30.878 63.422 28.24 63.8822 24.4127L65.3965 11.5278H66.4803C67.5492 11.5278 68.7962 10.4299 69.0189 8.6001L69.1229 7.94442ZM87.1162 7.63945C83.1226 7.63945 79.3517 10.6586 78.1937 15.4009C77.0358 20.1431 78.7876 25.7545 84.6666 25.7545C90.5307 25.7545 93.9156 19.9144 93.9156 15.0502C93.9156 10.2164 90.7237 7.63945 87.1162 7.63945ZM88.7344 16.453C88.5265 18.6031 87.6061 21.8662 85.0823 21.8662C82.5436 21.8662 82.8999 18.0541 83.1523 16.2395C83.4195 14.303 84.4736 11.543 86.745 11.543C88.7789 11.543 88.9719 14.0285 88.7344 16.453ZM113.646 13.0831C113.646 13.0831 111.642 19.5485 111.478 20.0821C111.419 19.5332 109.949 7.92917 109.949 7.92917C106.535 7.92917 104.709 10.4299 103.744 13.0679C103.744 13.0679 101.309 19.5485 101.101 20.0974C101.086 19.5942 100.73 13.1441 100.73 13.1441C100.522 9.91146 97.642 7.94442 95.3111 7.94442L98.117 25.5258C101.695 25.5106 103.625 23.0251 104.634 20.3871C104.634 20.3871 106.787 14.669 106.861 14.4097C106.891 14.6537 108.405 25.5258 108.405 25.5258C111.998 25.5258 113.928 23.1928 114.967 20.6463L120 7.94442C116.467 7.94442 114.596 10.4299 113.646 13.0831ZM72.389 0.106739L69.4792 24.2145L68.8853 27.1879C68.9595 27.1879 69.0486 27.2031 69.1229 27.2031C72.2554 27.1574 74.4822 24.3364 74.8979 20.7836L76.5755 6.95327C77.0803 2.72946 74.6307 0.106739 72.389 0.106739Z" fill="#4353FF"/>
</g>
<defs>
<clipPath id="clip0_3_180">
<rect width="120" height="31" fill="white"/>
</clipPath>
</defs>
</svg>
