<svg width="59" height="16" viewBox="0 0 59 16" fill="none" xmlns="http://www.w3.org/2000/svg">
<g id="Webflow" clip-path="url(#clip0_3_877)">
<path id="Vector" d="M19.0511 6.36572C19.0511 5.29587 18.0219 4.15962 16.2409 4.15962C14.2409 4.15962 12.0438 5.64265 11.708 8.60133C11.365 11.5895 13.2044 12.9176 15.0584 12.9176C16.9124 12.9176 17.8832 12.1872 18.8759 11.2132C18.0219 10.1286 16.9197 10.6303 16.708 10.741C16.4745 10.8591 16.1752 11.0214 15.562 11.0214C14.8467 11.0214 14.1168 10.6968 14.1168 9.34653C18.7007 8.88908 19.0511 7.43556 19.0511 6.36572ZM16.781 6.54279C16.7518 6.87482 16.6204 7.44294 14.2993 7.76021C14.7883 6.00418 15.7226 5.87137 16.1533 5.87137C16.5547 5.87137 16.8102 6.18864 16.781 6.54279ZM9.0146 6.83055C9.0146 6.83055 8.0292 9.95893 7.94891 10.2172C7.91971 9.95155 7.19708 4.33669 7.19708 4.33669C5.51825 4.33669 4.62044 5.54673 4.14599 6.82317C4.14599 6.82317 2.94891 9.95893 2.84672 10.2245C2.83942 9.98106 2.66423 6.86006 2.66423 6.86006C2.56204 5.29587 1.14599 4.34407 0 4.34407L1.38686 12.8512C3.14599 12.8438 4.09489 11.6412 4.59124 10.3647C4.59124 10.3647 5.64964 7.59788 5.69343 7.47245C5.70073 7.59051 6.45256 12.8512 6.45256 12.8512C8.21898 12.8512 9.16788 11.7223 9.67883 10.4902L12.1533 4.34407C10.4088 4.34407 9.48905 5.54673 9.0146 6.83055ZM25.5328 4.14486C24.4453 4.14486 23.6131 4.7425 22.9124 5.62051V5.61313L23.5401 0.5C22.0949 0.5 20.9197 1.76906 20.6934 3.65789L19.5985 12.7848C20.4307 12.7848 21.3139 12.5413 21.7883 11.9215C22.2117 12.4749 22.8467 12.9176 23.7883 12.9176C26.2263 12.9176 27.8978 10.0548 27.8978 7.36916C27.8832 4.91958 26.708 4.14486 25.5328 4.14486ZM25.3066 8.53492C25.0511 10.0327 24.2263 11.0509 23.4307 11.0509C22.6277 11.0509 22.2847 10.6894 22.2847 10.6894C22.438 9.37605 22.5328 8.57181 22.8248 7.87826C23.1168 7.1847 23.8102 6.07796 24.5328 6.07796C25.2409 6.07796 25.562 7.02976 25.3066 8.53492ZM33.9854 4.34407H32.2847L32.292 4.25553C32.4088 3.13404 32.6715 2.54378 33.5401 2.44786C34.1314 2.38883 34.3942 2.07895 34.4599 1.73955C34.511 1.47393 34.6715 0.551648 34.6715 0.551648C31.2555 0.529513 30.1825 2.01992 29.9051 4.29242L29.8978 4.34407H29.8613C29.3066 4.34407 28.6934 4.9786 28.5912 5.78283L28.5547 6.07796H29.6934L28.7372 14.0612L28.4453 15.4926C28.4818 15.4926 28.5255 15.5 28.562 15.5C30.1606 15.441 31.1825 14.1645 31.4088 12.3126L32.1533 6.07796H32.6861C33.2117 6.07796 33.8248 5.54673 33.9343 4.66134L33.9854 4.34407ZM42.8321 4.19651C40.8686 4.19651 39.0146 5.6574 38.4453 7.95204C37.8759 10.2467 38.7372 12.9619 41.6277 12.9619C44.511 12.9619 46.1752 10.136 46.1752 7.78234C46.1752 5.44343 44.6058 4.19651 42.8321 4.19651ZM43.6277 8.46114C43.5256 9.50148 43.073 11.0804 41.8321 11.0804C40.5839 11.0804 40.7591 9.23586 40.8832 8.35785C41.0146 7.42081 41.5328 6.08534 42.6496 6.08534C43.6496 6.08534 43.7445 7.288 43.6277 8.46114ZM55.8759 6.83055C55.8759 6.83055 54.8905 9.95893 54.8102 10.2172C54.781 9.95155 54.0584 4.33669 54.0584 4.33669C52.3796 4.33669 51.4818 5.54673 51.0073 6.82317C51.0073 6.82317 49.8102 9.95893 49.708 10.2245C49.7007 9.98106 49.5256 6.86006 49.5256 6.86006C49.4234 5.29587 48.0073 4.34407 46.8613 4.34407L48.2409 12.8512C50 12.8438 50.9489 11.6412 51.4453 10.3647C51.4453 10.3647 52.5037 7.59788 52.5401 7.47245C52.5547 7.59051 53.2993 12.8512 53.2993 12.8512C55.0657 12.8512 56.0146 11.7223 56.5256 10.4902L59 4.34407C57.2628 4.34407 56.3431 5.54673 55.8759 6.83055ZM35.5912 0.551648L34.1606 12.2167L33.8686 13.6554C33.9051 13.6554 33.9489 13.6628 33.9854 13.6628C35.5256 13.6407 36.6204 12.2757 36.8248 10.5566L37.6496 3.86449C37.8978 1.82071 36.6934 0.551648 35.5912 0.551648Z" fill="#4353FF"/>
</g>
<defs>
<clipPath id="clip0_3_877">
<rect width="59" height="15" fill="white" transform="translate(0 0.5)"/>
</clipPath>
</defs>
</svg>
