<svg width="77" height="11" viewBox="0 0 77 11" fill="none" xmlns="http://www.w3.org/2000/svg">
<g id="WeTransfer">
<path id="Vector" d="M5.56447 10.4999L1.56628 2.55287C1.3089 2.04807 1.06442 1.69686 0.833188 1.49987C0.60196 1.30287 0.333764 1.20405 0.0285983 1.20405H0V0.825296H5.77198L5.76501 1.20438C5.50274 1.21312 5.3036 1.26723 5.16758 1.36703C5.03156 1.46649 4.96391 1.60743 4.96391 1.78887C4.96391 1.87311 4.97681 1.9661 5.00297 2.06784C5.02947 2.1699 5.07097 2.28071 5.12852 2.40026L6.6662 5.96848L8.71168 0.5L10.9577 5.96848L12.3451 2.5263C12.3834 2.4291 12.4131 2.32153 12.4344 2.20424C12.456 2.08695 12.4664 1.9661 12.4664 1.84201C12.4664 1.64729 12.3949 1.4976 12.252 1.39359C12.109 1.28959 11.892 1.22641 11.6012 1.20405V0.825296H14.5552V1.20438C14.1785 1.23969 13.8793 1.34921 13.6575 1.53324C13.4356 1.71695 13.2222 2.05261 13.0171 2.53958L9.69868 10.4999L7.53845 5.27706L5.56447 10.4999ZM20.5263 9.11128C20.121 9.56294 19.6561 9.90735 19.1312 10.1445C18.6078 10.3813 18.0327 10.5029 17.4506 10.4999C16.9072 10.4999 16.398 10.3979 15.9237 10.1941C15.4495 9.99048 15.0304 9.69079 14.6971 9.31702C14.4187 9.01167 14.203 8.66146 14.0606 8.28379C13.9176 7.90535 13.8458 7.49647 13.8458 7.05809C13.8458 6.60611 13.9152 6.18524 14.0533 5.79546C14.196 5.398 14.4087 5.0253 14.6828 4.69257C14.988 4.30701 15.3992 3.99499 15.9164 3.75556C16.4339 3.51644 16.9595 3.39689 17.4935 3.39689C18.4233 3.39689 19.1661 3.6603 19.7217 4.18745C20.2769 4.7146 20.5549 5.42124 20.5549 6.30706H16.4137C16.4423 7.09568 16.7189 7.75113 17.2434 8.27374C17.7679 8.79668 18.3995 9.05782 19.1386 9.05782C19.42 9.05782 19.675 9.01052 19.9041 8.91526C20.1414 8.81423 20.3533 8.66822 20.5263 8.48661V9.11128ZM16.3994 5.83564H17.0572C17.7059 5.83564 18.1038 5.78347 18.2517 5.67915C18.3995 5.57547 18.4735 5.37685 18.4735 5.08461C18.4735 4.6903 18.3971 4.39449 18.2447 4.19749C18.0923 4.0005 17.8611 3.902 17.5507 3.902C17.1552 3.902 16.8643 4.0559 16.6784 4.36371C16.4925 4.67151 16.3994 5.16204 16.3994 5.83532V5.83564ZM23.3289 1.43636C22.7807 1.52514 22.3098 1.73541 21.9164 2.06751C21.523 2.39994 21.1928 2.86488 20.926 3.46298L20.6037 3.35671L21.1764 0.579704C21.31 0.659408 21.484 0.72032 21.6985 0.76244C21.913 0.80456 22.1683 0.825296 22.4637 0.825296H27.4059C27.6968 0.825296 27.9486 0.80456 28.1607 0.76244C28.3727 0.72032 28.5457 0.659408 28.6793 0.579704L29.2655 3.35704L28.944 3.46331C28.6674 2.85646 28.3336 2.38795 27.9423 2.05812C27.5517 1.72796 27.0844 1.52093 26.5403 1.43669V8.66611C26.5403 9.10027 26.6191 9.39705 26.7768 9.55646C26.9337 9.71587 27.2343 9.80886 27.678 9.83542V10.2142H22.1703V9.83542C22.623 9.80886 22.9296 9.71457 23.0893 9.5529C23.2491 9.39122 23.3289 9.09573 23.3289 8.66611V1.43636ZM32.6189 4.51275C32.8571 4.14079 33.1158 3.8615 33.3948 3.67553C33.6739 3.48955 33.9727 3.39656 34.2922 3.39656C34.6452 3.39656 34.929 3.49376 35.1432 3.68881C35.358 3.88386 35.4654 4.14079 35.4654 4.45993C35.4654 4.73857 35.3758 4.96246 35.1969 5.13061C35.0183 5.29909 34.7812 5.38333 34.4854 5.38333C34.2186 5.38333 33.9623 5.28354 33.7168 5.08428C33.4709 4.88502 33.315 4.78523 33.248 4.78523C33.0911 4.78523 32.9788 4.88243 32.9118 5.07748C32.8449 5.27253 32.8117 5.62018 32.8117 6.12076V8.86504C32.8117 9.21043 32.8871 9.45861 33.037 9.60927C33.1873 9.75993 33.4339 9.8351 33.7774 9.8351H33.8203V10.2142H29.1351V9.83542H29.178C29.4929 9.83542 29.7182 9.76123 29.8539 9.61284C29.9895 9.46444 30.0579 9.21529 30.0579 8.86537V6.3602C30.0579 6.14765 30.0293 5.99051 29.9721 5.88845C29.9149 5.78639 29.8075 5.68692 29.6502 5.58972L28.756 5.0049C29.2233 4.85424 29.7622 4.64721 30.3725 4.38347C30.9828 4.12006 31.7316 3.77338 32.6185 3.34343L32.6189 4.51275ZM39.3768 6.29345C38.9478 6.45318 38.621 6.70428 38.3968 7.04772C38.1725 7.39116 38.0606 7.81075 38.0606 8.30679C38.0606 8.59029 38.1212 8.81644 38.243 8.9846C38.3647 9.15308 38.523 9.23732 38.7187 9.23732C38.9712 9.23732 39.1442 9.14401 39.2373 8.95803C39.3301 8.77205 39.3768 8.30679 39.3768 7.56256V6.29345ZM39.5128 9.35655C39.1501 9.74211 38.7699 10.0289 38.3717 10.2171C37.9734 10.4053 37.5528 10.4996 37.1091 10.4996C36.5229 10.4996 36.0472 10.3457 35.6827 10.0379C35.3176 9.73012 35.1352 9.33484 35.1352 8.85176C35.1352 8.28022 35.4131 7.78321 35.9687 7.36006C36.5239 6.93692 37.6602 6.41754 39.3768 5.80162V5.3302C39.3768 4.83415 39.3088 4.4784 39.1728 4.26359C39.0367 4.04878 38.8139 3.94153 38.5042 3.94153C38.2513 3.94153 38.0414 4.01119 37.8747 4.15084C37.708 4.29048 37.6243 4.46415 37.6243 4.67248C37.6243 4.78296 37.6291 4.91256 37.6386 5.06128C37.648 5.20935 37.6529 5.30363 37.6529 5.34316C37.6529 5.66683 37.5563 5.92701 37.3634 6.124C37.1702 6.32132 36.9138 6.41981 36.5944 6.41981C36.3035 6.41981 36.0698 6.3346 35.8934 6.16385C35.7169 5.9931 35.6287 5.76857 35.6287 5.48961C35.6287 4.88697 35.9363 4.38801 36.5515 3.9911C37.1667 3.59485 37.958 3.39656 38.9262 3.39656C39.4696 3.39656 39.962 3.46072 40.4028 3.58934C40.844 3.71765 41.205 3.90362 41.4864 4.14727C41.7156 4.34686 41.8774 4.57917 41.973 4.84517C42.0685 5.11117 42.1159 5.51164 42.1159 6.04786V7.94132C42.1159 8.46847 42.1602 8.84301 42.2485 9.0643C42.3364 9.28592 42.4787 9.39673 42.674 9.39673C42.7184 9.39641 42.7623 9.38736 42.8027 9.37016C42.8456 9.35234 42.8909 9.32577 42.9387 9.29013V9.72202C42.7479 9.94818 42.501 10.1231 42.1983 10.2469C41.8955 10.371 41.5604 10.4332 41.1935 10.4332C40.7736 10.4332 40.422 10.3425 40.1385 10.1607C39.8549 9.97896 39.646 9.71101 39.5125 9.35655H39.5128ZM46.7356 8.86504C46.7356 9.20622 46.8008 9.45084 46.932 9.59923C47.0631 9.74762 47.2814 9.82603 47.5866 9.8351V10.2142H43.059V9.83542H43.1019C43.4168 9.83542 43.6421 9.76123 43.7778 9.61284C43.9138 9.46444 43.9818 9.21529 43.9818 8.86537V6.3602C43.9818 6.14765 43.9532 5.99051 43.896 5.88845C43.8385 5.78672 43.7314 5.68692 43.5741 5.58972L42.6799 5.0049C43.3025 4.79346 43.9146 4.55627 44.5144 4.29404C45.1842 4.00106 45.8415 3.68406 46.4849 3.34375V4.47322C46.7708 4.11876 47.105 3.85308 47.4862 3.67618C47.8677 3.49862 48.297 3.41017 48.7738 3.41017C49.5557 3.41017 50.1385 3.59485 50.5225 3.96486C50.9061 4.33487 51.0979 4.89863 51.0979 5.65614V8.86537C51.0979 9.21529 51.1663 9.46444 51.3019 9.61284C51.438 9.76123 51.6633 9.83542 51.9778 9.83542H52.0207V10.2142H48.3448V5.72256C48.3448 5.24401 48.2813 4.91191 48.1551 4.72594C48.0288 4.53964 47.8154 4.44665 47.5151 4.44665C47.2337 4.44665 47.0335 4.5432 46.9142 4.73566C46.7949 4.92844 46.7353 5.2573 46.7353 5.72256L46.7356 8.86504ZM52.2631 9.94137V7.76215H52.6349C52.8494 8.48402 53.1786 9.04098 53.6219 9.43302C54.0652 9.82506 54.5852 10.0211 55.1812 10.0211C55.5007 10.0211 55.7486 9.95239 55.9251 9.81534C56.1016 9.67796 56.1898 9.48518 56.1898 9.23699C56.1898 8.7497 55.6747 8.31133 54.6448 7.92155L54.5517 7.88818C53.646 7.54733 53.045 7.22495 52.7493 6.92136C52.4539 6.6181 52.306 6.22703 52.306 5.74848C52.306 5.03568 52.5944 4.46739 53.1713 4.04424C53.7481 3.6211 54.5304 3.41017 55.5174 3.41017C55.8892 3.41017 56.2707 3.43998 56.6617 3.49992C57.0526 3.55954 57.4534 3.64702 57.8632 3.76236V5.57644H57.5057C57.1813 4.96505 56.857 4.53089 56.5326 4.27396C56.2083 4.01702 55.8369 3.8884 55.4173 3.8884C55.1024 3.8884 54.8474 3.96065 54.6518 4.1045C54.4561 4.24836 54.3588 4.43337 54.3588 4.65919C54.3588 5.03601 54.8855 5.42124 55.9394 5.81555C56.0252 5.84665 56.0894 5.87063 56.1323 5.88845C57.091 6.25198 57.7108 6.58181 57.9922 6.8786C58.2733 7.17538 58.4142 7.56969 58.4142 8.0612C58.4142 8.78339 58.115 9.37016 57.5165 9.82214C56.918 10.2741 56.1396 10.4999 55.1812 10.4999C54.7139 10.4999 54.2371 10.4533 53.7506 10.3606C53.2426 10.2614 52.7449 10.1212 52.2631 9.9417V9.94137ZM62.4326 8.86504C62.4326 9.2195 62.5017 9.46963 62.6401 9.61575C62.7783 9.76188 63.0119 9.8351 63.3411 9.8351H63.4412V10.2142H58.7563V9.83542H58.7992C59.1138 9.83542 59.3391 9.76123 59.4751 9.61284C59.6112 9.46444 59.6788 9.21529 59.6788 8.86537V4.20073H58.9778V3.82878C59.2021 3.66484 59.4835 3.32593 59.8218 2.81207C60.0032 2.54185 60.1462 2.33805 60.2511 2.201C60.6086 1.72699 61.0344 1.35828 61.5276 1.09454C62.0207 0.830804 62.5376 0.69926 63.0761 0.69926C63.6533 0.69926 64.1241 0.82886 64.4886 1.08806C64.8537 1.34726 65.0361 1.6758 65.0361 2.07464C65.0361 2.34032 64.9454 2.55416 64.7641 2.71584C64.5831 2.87752 64.3421 2.95819 64.0422 2.95819C63.8085 2.95819 63.6128 2.90862 63.4555 2.80883C63.2979 2.70903 63.1336 2.51075 62.962 2.21429C62.7856 1.92593 62.6353 1.73801 62.5114 1.64923C62.3873 1.56078 62.2394 1.51639 62.0678 1.51639C61.8676 1.51639 61.7103 1.57082 61.596 1.67936C61.4812 1.7879 61.424 1.93273 61.424 2.11449C61.424 2.30954 61.5649 2.56291 61.846 2.87525C62.1275 3.18758 62.3085 3.46104 62.3897 3.69594H63.7342V4.20073H62.4326V8.86504ZM70.3565 9.11096C69.9512 9.56262 69.4863 9.90703 68.9614 10.1442C68.438 10.3809 67.8629 10.5026 67.2807 10.4996C66.7374 10.4996 66.2282 10.3976 65.7539 10.1938C65.2797 9.99015 64.8605 9.69046 64.5273 9.3167C64.2489 9.01134 64.0332 8.66113 63.8908 8.28346C63.7478 7.90503 63.676 7.49614 63.676 7.05777C63.676 6.60579 63.7454 6.18491 63.8835 5.79514C64.0262 5.39767 64.2389 5.02497 64.513 4.69224C64.8181 4.30668 65.2293 3.99467 65.7466 3.75523C66.2641 3.51612 66.7897 3.39656 67.3236 3.39656C68.2534 3.39656 68.9963 3.65998 69.5519 4.18712C70.1071 4.71427 70.3851 5.42092 70.3851 6.30674H66.2439C66.2725 7.09535 66.549 7.75081 67.0736 8.27342C67.5981 8.79636 68.2297 9.0575 68.9687 9.0575C69.2502 9.0575 69.5051 9.01019 69.7339 8.91494C69.9713 8.81394 70.1834 8.66793 70.3565 8.48629V9.11096ZM66.2296 5.83532H66.8873C67.536 5.83532 67.934 5.78315 68.0818 5.67882C68.2297 5.57514 68.3037 5.37653 68.3037 5.08428C68.3037 4.68997 68.2273 4.39416 68.0749 4.19717C67.9221 4.00018 67.6912 3.90168 67.3808 3.90168C66.9853 3.90168 66.6945 4.05558 66.5082 4.36338C66.322 4.67118 66.2292 5.16172 66.2292 5.83499L66.2296 5.83532ZM74.1534 4.51275C74.3916 4.14079 74.6504 3.8615 74.9291 3.67553C75.2081 3.48955 75.5073 3.39656 75.8268 3.39656C76.1797 3.39656 76.4633 3.49376 76.6777 3.68881C76.8926 3.88386 77 4.14079 77 4.45993C77 4.73857 76.9104 4.96246 76.7315 5.13061C76.5529 5.29909 76.3157 5.38333 76.02 5.38333C75.7528 5.38333 75.4968 5.28354 75.251 5.08428C75.0054 4.88502 74.8492 4.78523 74.7826 4.78523C74.6253 4.78523 74.5133 4.88243 74.4464 5.07748C74.3794 5.27253 74.3463 5.62018 74.3463 6.12076V8.86504C74.3463 9.21043 74.4213 9.45861 74.5716 9.60927C74.7215 9.75993 74.9685 9.8351 75.312 9.8351H75.3549V10.2142H70.67V9.83542H70.7129C71.0275 9.83542 71.2528 9.76123 71.3888 9.61284C71.5248 9.46444 71.5928 9.21529 71.5928 8.86537V6.3602C71.5928 6.14765 71.5642 5.99051 71.507 5.88845C71.4498 5.78639 71.3424 5.68692 71.1851 5.58972L70.2909 5.0049C70.7582 4.85424 71.2971 4.64721 71.9074 4.38347C72.5177 4.12006 73.2662 3.77338 74.1534 3.34343V4.51275Z" fill="#409FFF"/>
</g>
</svg>
