<svg width="72" height="72" viewBox="0 0 72 72" fill="none" xmlns="http://www.w3.org/2000/svg">
<g id="Frame">
<path id="Vector" d="M6.75 21.375C6.75 19.512 8.262 18 10.125 18H28.125C29.988 18 31.5 19.512 31.5 21.375V32.625C31.5 34.488 29.988 36 28.125 36H10.125C9.22989 36 8.37145 35.6444 7.73851 35.0115C7.10558 34.3785 6.75 33.5201 6.75 32.625V21.375ZM42.75 25.875C42.75 24.012 44.262 22.5 46.125 22.5H61.875C63.738 22.5 65.25 24.012 65.25 25.875V50.625C65.25 52.488 63.738 54 61.875 54H46.125C45.2299 54 44.3715 53.6444 43.7385 53.0115C43.1056 52.3786 42.75 51.5201 42.75 50.625V25.875ZM11.25 48.375C11.25 46.512 12.762 45 14.625 45H30.375C32.238 45 33.75 46.512 33.75 48.375V55.125C33.75 56.988 32.238 58.5 30.375 58.5H14.625C13.7299 58.5 12.8715 58.1444 12.2385 57.5115C11.6056 56.8786 11.25 56.0201 11.25 55.125V48.375Z" stroke="#C3DD4F" stroke-width="1.5" stroke-linecap="round" stroke-linejoin="round"/>
</g>
</svg>
