<svg width="60" height="61" viewBox="0 0 60 61" fill="none" xmlns="http://www.w3.org/2000/svg">
<g id="cell-phone 2" clip-path="url(#clip0_1_235)">
<path id="Vector" d="M38.75 50.5H1.25C0.56 50.5 0 49.94 0 49.25C0 48.56 0.56 48 1.25 48H38.75C39.44 48 40 48.56 40 49.25C40 49.94 39.44 50.5 38.75 50.5Z" fill="white"/>
<path id="Vector_2" d="M33.75 60.5H6.25C2.805 60.5 0 57.695 0 54.25V6.75C0 3.305 2.805 0.5 6.25 0.5H33.75C37.195 0.5 40 3.305 40 6.75C40 7.44 39.44 8 38.75 8C38.06 8 37.5 7.44 37.5 6.75C37.5 4.6825 35.8175 3 33.75 3H6.25C4.1825 3 2.5 4.6825 2.5 6.75V54.25C2.5 56.3175 4.1825 58 6.25 58H33.75C35.8175 58 37.5 56.3175 37.5 54.25V46.75C37.5 46.06 38.06 45.5 38.75 45.5C39.44 45.5 40 46.06 40 46.75V54.25C40 57.695 37.195 60.5 33.75 60.5Z" fill="white"/>
<path id="Vector_3" d="M40.6451 35.095C40.3251 35.095 40.0051 34.9725 39.7601 34.73L30.7676 25.7375C30.2976 25.2675 30.2776 24.51 30.7226 24.0175L38.0876 15.84C43.3226 9.7975 51.6226 5.6325 58.7276 5.5C59.0651 5.4925 59.3951 5.625 59.6351 5.865C59.8751 6.105 60.0051 6.435 60.0001 6.7725C59.8676 13.8775 55.7026 22.1775 49.6401 27.425L41.4801 34.775C41.2451 34.99 40.9451 35.095 40.6451 35.095ZM33.3776 24.81L40.6926 32.125L47.9876 25.5525C53.1776 21.06 56.8426 14.1975 57.4226 8.0775C51.3026 8.6575 44.4426 12.3225 39.9651 17.495L33.3776 24.81Z" fill="white"/>
<path id="Vector_4" d="M44.0101 41.025C43.8976 41.025 43.7826 41.01 43.6701 40.9775C43.2351 40.855 42.9001 40.5075 42.7926 40.065L41.0251 32.69C40.8651 32.02 41.2801 31.345 41.9501 31.1825C42.6326 31.025 43.2976 31.4375 43.4576 32.1075L44.6301 37.005C46.8026 33.6075 47.2351 29.26 47.2801 26.7175C47.2926 26.0275 47.8376 25.4775 48.5526 25.49C49.2426 25.5025 49.7926 26.0725 49.7801 26.7625C49.6751 32.6775 47.9401 37.6125 44.8926 40.66C44.6551 40.8975 44.3351 41.025 44.0101 41.025Z" fill="white"/>
<path id="Vector_5" d="M33.1026 24.5075C33.0051 24.5075 32.9076 24.4975 32.8101 24.4725L25.4351 22.705C24.9951 22.6 24.6451 22.2675 24.5226 21.83C24.4001 21.395 24.5226 20.9275 24.8401 20.6075C27.8876 17.56 32.8226 15.825 38.7376 15.72C39.3851 15.765 40.0001 16.2575 40.0101 16.9475C40.0201 17.6375 39.4726 18.2075 38.7826 18.22C36.2376 18.265 31.8926 18.6975 28.4951 20.87L33.3926 22.0425C34.0626 22.2025 34.4776 22.8775 34.3176 23.55C34.1776 24.1225 33.6676 24.5075 33.1026 24.5075Z" fill="white"/>
<path id="Vector_6" d="M23.7501 43C23.4226 43 23.1051 42.8725 22.8651 42.635C22.5401 42.31 22.4201 41.8325 22.5526 41.3925C22.9651 40.0125 25.11 33.0475 26.7901 31.3675C28.8126 29.3425 32.1051 29.34 34.1351 31.3675C36.1601 33.3925 36.1601 36.6875 34.1351 38.7125C32.4576 40.39 25.4901 42.5375 24.1101 42.95C23.9901 42.9825 23.8701 43 23.7501 43ZM30.4626 32.3475C29.7726 32.3475 29.0826 32.61 28.5576 33.135C27.8476 33.845 26.6276 36.975 25.6726 39.8275C28.5251 38.8725 31.6576 37.65 32.3651 36.9425C33.4151 35.8925 33.4151 34.1825 32.3651 33.135C31.8401 32.61 31.1501 32.3475 30.4626 32.3475Z" fill="white"/>
</g>
<defs>
<clipPath id="clip0_1_235">
<rect width="60" height="60" fill="white" transform="translate(0 0.5)"/>
</clipPath>
</defs>
</svg>
