<svg width="70" height="71" viewBox="0 0 70 71" fill="none" xmlns="http://www.w3.org/2000/svg">
<g id="Group 9">
<g id="Group 7">
<path id="Vector" d="M19.0885 48.7732C18.7717 48.7274 18.4725 48.5605 18.2647 48.2855L10.6488 38.1008C10.2507 37.5685 10.3391 36.8159 10.8499 36.392L19.3074 29.3503C25.3518 24.1175 34.1616 21.1806 41.2126 22.0643C41.5478 22.1051 41.8554 22.2834 42.0587 22.5552C42.262 22.827 42.3435 23.1722 42.2903 23.5055C41.1444 30.5188 35.8366 38.1388 29.0868 42.4666L19.9606 48.5757C19.6973 48.7549 19.3854 48.816 19.0885 48.7732ZM13.3645 37.5556L19.5597 45.8404L27.7186 40.3772C33.4971 36.6721 38.1047 30.4034 39.5529 24.429C33.4128 24.1289 26.0996 26.7765 20.9293 31.2565L13.3645 37.5556Z" fill="white"/>
<path id="Vector_2" d="M21.5721 55.1229C21.4607 55.1068 21.349 55.0755 21.2423 55.0273C20.8293 54.8439 20.5473 54.4521 20.5042 53.9988L19.8082 46.447C19.7455 45.761 20.2527 45.1522 20.939 45.087C21.637 45.0286 22.2362 45.5319 22.2989 46.2179L22.7599 51.2326C25.3954 48.1803 26.4444 43.9391 26.8521 41.4291C26.963 40.748 27.581 40.2814 28.2868 40.3959C28.968 40.5069 29.4309 41.1496 29.32 41.8307C28.3712 47.6701 25.9492 52.3067 22.4976 54.8877C22.2286 55.0888 21.8937 55.1693 21.5721 55.1229Z" fill="white"/>
<path id="Vector_3" d="M13.1359 37.2168C13.0394 37.2029 12.9443 37.1791 12.8514 37.1404L5.80446 34.3376C5.38397 34.1709 5.08505 33.7918 5.0263 33.3413C4.96718 32.8932 5.1552 32.448 5.51515 32.1766C8.96668 29.5957 14.0989 28.5833 19.9682 29.3242C20.6027 29.4613 21.141 30.0366 21.0524 30.7209C20.9637 31.4053 20.3404 31.8912 19.6557 31.805C17.1304 31.4861 12.7681 31.2935 9.09518 32.9585L13.775 34.8185C14.4153 35.0726 14.7296 35.7999 14.4752 36.4427C14.2549 36.9893 13.6951 37.2975 13.1359 37.2168Z" fill="white"/>
<path id="Vector_4" d="M1.23772 54.1839C0.913577 54.1371 0.617543 53.9656 0.413926 53.6962C0.138679 53.3281 0.0881104 52.8384 0.282098 52.4218C0.887475 51.1149 4.0053 44.5277 5.90803 43.1048C8.19903 41.3895 11.4581 41.8573 13.1777 44.1539C14.8927 46.4474 14.4221 49.7086 12.1286 51.4236C10.2287 52.8443 3.02594 53.9746 1.60117 54.1858C1.47776 54.2008 1.35649 54.201 1.23772 54.1839ZM9.4029 44.5993C8.71998 44.5008 7.99956 44.662 7.40496 45.1067C6.60083 45.708 4.94627 48.6316 3.59364 51.3185C6.5533 50.7807 9.82829 50.0182 10.6296 49.419C11.8188 48.5297 12.063 46.8372 11.1734 45.6505C10.7288 45.0559 10.0834 44.6975 9.4029 44.5993Z" fill="white"/>
</g>
<path id="Ellipse 4" d="M32.1064 52.3853C45.0827 55.088 57.7931 46.7596 60.4959 33.7832C63.1986 20.8068 54.8701 8.09643 41.8938 5.39372C28.9174 2.691 16.207 11.0194 13.5043 23.9958" stroke="white" stroke-width="2.5" stroke-linecap="round"/>
<path id="Vector 8" d="M52.0002 48.3895L68.5002 69.3895" stroke="white" stroke-width="2.5" stroke-linecap="round"/>
</g>
</svg>
