<svg width="60" height="61" viewBox="0 0 60 61" fill="none" xmlns="http://www.w3.org/2000/svg">
<g id="rocket (2) 2" clip-path="url(#clip0_1_208)">
<path id="Vector" d="M56.25 53H3.75C1.6825 53 0 51.3175 0 49.25V14.25C0 12.1825 1.6825 10.5 3.75 10.5H13.75C14.44 10.5 15 11.06 15 11.75C15 12.44 14.44 13 13.75 13H3.75C3.06 13 2.5 13.56 2.5 14.25V49.25C2.5 49.94 3.06 50.5 3.75 50.5H56.25C56.94 50.5 57.5 49.94 57.5 49.25V14.25C57.5 13.56 56.94 13 56.25 13H53.75C53.06 13 52.5 12.44 52.5 11.75C52.5 11.06 53.06 10.5 53.75 10.5H56.25C58.3175 10.5 60 12.1825 60 14.25V49.25C60 51.3175 58.3175 53 56.25 53Z" fill="white"/>
<path id="Vector_2" d="M38.7499 60.5H21.25C20.745 60.5 20.2875 60.195 20.095 59.7275C19.9 59.26 20.0075 58.7225 20.365 58.365C23.655 55.0749 23.6975 51.8899 23.6975 51.7549C23.7 51.0674 24.2599 50.4999 24.9499 50.4999H34.9999C35.6874 50.4999 36.2474 51.0549 36.2499 51.7424C36.2524 51.8999 36.3499 55.0824 39.6349 58.365C39.9924 58.7225 40.0999 59.26 39.9049 59.7275C39.7124 60.195 39.2549 60.5 38.7499 60.5ZM23.9275 58H36.0699C34.6699 55.9975 34.1149 54.1574 33.8949 52.9999H26.07C25.8575 54.1624 25.3175 56 23.9275 58ZM36.2499 51.7499H36.2749H36.2499Z" fill="white"/>
<path id="Vector_3" d="M58.75 45.5H1.25C0.56 45.5 0 44.94 0 44.25C0 43.56 0.56 43 1.25 43H58.75C59.44 43 60 43.56 60 44.25C60 44.94 59.44 45.5 58.75 45.5Z" fill="white"/>
<path id="Vector_4" d="M31.895 30.095C31.575 30.095 31.255 29.9725 31.01 29.73L22.02 20.7375C21.55 20.2675 21.53 19.51 21.975 19.0175L29.34 10.84C34.5725 4.7975 42.8725 0.632498 49.9775 0.499998C50.3175 0.477498 50.645 0.624998 50.885 0.864998C51.125 1.105 51.2575 1.4325 51.25 1.7725C51.1175 8.8775 46.9525 17.1775 40.89 22.425L32.73 29.775C32.495 29.99 32.195 30.095 31.895 30.095ZM24.6275 19.81L31.9425 27.125L39.2375 20.5525C44.4275 16.06 48.0925 9.1975 48.6725 3.0775C42.5525 3.6575 35.6925 7.3225 31.215 12.495L24.6275 19.81Z" fill="white"/>
<path id="Vector_5" d="M35.26 36.025C35.1475 36.025 35.0325 36.01 34.92 35.9775C34.485 35.855 34.15 35.5075 34.0425 35.065L32.275 27.69C32.115 27.02 32.53 26.345 33.2 26.1825C33.88 26.025 34.5475 26.4375 34.7075 27.1075L35.88 32.005C38.0525 28.6075 38.485 24.26 38.53 21.7175C38.5425 21.0275 39.05 20.44 39.8025 20.49C40.4925 20.5 41.0425 21.0725 41.03 21.76C40.925 27.675 39.19 32.61 36.1425 35.6575C35.905 35.8975 35.585 36.025 35.26 36.025Z" fill="white"/>
<path id="Vector_6" d="M24.3525 19.5075C24.255 19.5075 24.1574 19.4975 24.0599 19.4725L16.685 17.705C16.245 17.6 15.895 17.2675 15.7725 16.83C15.65 16.395 15.7725 15.9275 16.09 15.6075C19.1375 12.56 24.0725 10.825 29.9874 10.72C30.7099 10.725 31.2474 11.2575 31.2599 11.9475C31.2724 12.6375 30.7224 13.2075 30.0324 13.22C27.4874 13.265 23.1425 13.6975 19.745 15.87L24.6425 17.0425C25.3125 17.2025 25.7275 17.8775 25.5675 18.55C25.4275 19.1225 24.9175 19.5075 24.3525 19.5075Z" fill="white"/>
<path id="Vector_7" d="M15.0001 38C14.6726 38 14.3551 37.8725 14.1151 37.635C13.7901 37.31 13.6701 36.8325 13.8026 36.3925C14.2151 35.0125 16.3601 28.0475 18.0401 26.3675C20.0626 24.3425 23.3551 24.34 25.3851 26.3675C27.4101 28.3925 27.4101 31.6875 25.3851 33.7125C23.7076 35.39 16.7401 37.5375 15.3601 37.95C15.2401 37.9825 15.1201 38 15.0001 38ZM21.7126 27.3475C21.0226 27.3475 20.3326 27.61 19.8076 28.135C19.0976 28.845 17.8776 31.975 16.9226 34.8275C19.7751 33.8725 22.9076 32.65 23.6151 31.9425C24.6651 30.8925 24.6651 29.1825 23.6151 28.135C23.0901 27.61 22.4001 27.3475 21.7126 27.3475Z" fill="white"/>
</g>
<defs>
<clipPath id="clip0_1_208">
<rect width="60" height="60" fill="white" transform="translate(0 0.5)"/>
</clipPath>
</defs>
</svg>
