<svg width="60" height="61" viewBox="0 0 60 61" fill="none" xmlns="http://www.w3.org/2000/svg">
<g id="rocket 2" clip-path="url(#clip0_1_198)">
<path id="Vector" d="M29.6527 48.165C29.3327 48.165 29.0127 48.0425 28.7677 47.8L12.7002 31.7325C12.2302 31.2625 12.2102 30.51 12.6502 30.015L24.6927 16.525C33.1102 6.6775 46.8177 0.304997 58.7702 0.507497C59.4377 0.522497 59.9752 1.06 59.9902 1.7275C60.2677 13.6875 53.8227 27.3875 43.9502 35.8225L30.4827 47.8475C30.2477 48.06 29.9477 48.165 29.6527 48.165ZM15.3027 30.8L29.7002 45.1975L42.3077 33.9425C51.3227 26.2375 57.3102 13.9575 57.4952 3.005C46.5427 3.1875 34.2652 9.175 26.5752 18.17L15.3027 30.8Z" fill="white"/>
<path id="Vector_2" d="M34.4398 57.315C34.3198 57.315 34.1973 57.2976 34.0823 57.26C33.6324 57.1101 33.2624 56.7651 33.1974 56.2951L31.4824 44.3275C31.3849 43.645 31.8599 43.0125 32.5424 42.9125C33.2249 42.805 33.8573 43.2875 33.9573 43.9725L35.2973 53.3225C39.6773 48.085 42.1123 41.445 42.1123 34.675C42.1123 33.985 42.6723 33.425 43.3623 33.425C44.0523 33.425 44.6123 33.985 44.6123 34.675C44.6123 42.9575 41.2573 51.0651 35.4073 56.9125C35.1573 57.1625 34.7923 57.315 34.4398 57.315Z" fill="white"/>
<path id="Vector_3" d="M16.3523 29.0299C16.2948 29.0299 16.2348 29.0274 16.1748 29.0174L4.20728 27.3024C3.73728 27.2349 3.34478 26.9074 3.19728 26.4549C3.04978 26.0049 3.16978 25.5074 3.50728 25.1749C9.43978 19.2425 17.5448 15.8875 25.8273 15.8875C26.5173 15.8875 27.0773 16.4475 27.0773 17.1375C27.0773 17.8275 26.5173 18.3875 25.8273 18.3875C19.0248 18.3875 12.3498 20.845 7.16728 25.2L16.5298 26.5424C17.2123 26.6424 17.6873 27.2724 17.5898 27.9574C17.4973 28.5799 16.9623 29.0299 16.3523 29.0299Z" fill="white"/>
<path id="Vector_4" d="M42.8326 23.9151C41.2301 23.9151 39.6301 23.3051 38.4126 22.0876C35.9776 19.6501 35.9776 15.6851 38.4126 13.2476C40.8501 10.8101 44.8151 10.8101 47.2526 13.2476C49.6876 15.6851 49.6876 19.6501 47.2526 22.0876C46.0326 23.3076 44.4326 23.9151 42.8326 23.9151ZM42.8326 13.9201C41.8726 13.9201 40.9101 14.2851 40.1801 15.0151C38.7201 16.4776 38.7201 18.8576 40.1801 20.3201C41.6426 21.7801 44.0226 21.7776 45.4851 20.3201C46.9451 18.8576 46.9451 16.4776 45.4851 15.0151C44.7526 14.2876 43.7926 13.9201 42.8326 13.9201ZM46.3676 21.2051H46.3926H46.3676Z" fill="white"/>
<path id="Vector_5" d="M1.25005 60.5001C0.92255 60.5001 0.60505 60.3726 0.36505 60.1351C0.0400504 59.8101 -0.0799496 59.3326 0.0525504 58.8926C0.46255 57.5251 4.13505 45.4401 6.81005 42.7651C9.82255 39.7526 14.725 39.7501 17.7376 42.7651C20.75 45.7776 20.75 50.6801 17.7376 53.6926C15.0625 56.3676 2.97755 60.0401 1.61005 60.4501C1.49005 60.4826 1.37005 60.5001 1.25005 60.5001ZM12.2751 43.0026C10.9351 43.0026 9.59755 43.5126 8.57755 44.5301C7.13505 45.9751 4.73505 52.4276 3.15005 57.3501C8.07005 55.7651 14.5251 53.3651 15.9676 51.9226C18.0051 49.8851 18.0051 46.5676 15.9676 44.5301C14.9501 43.5126 13.6125 43.0026 12.2751 43.0026Z" fill="white"/>
</g>
<defs>
<clipPath id="clip0_1_198">
<rect width="60" height="60" fill="white" transform="translate(0 0.5)"/>
</clipPath>
</defs>
</svg>
