<svg width="35" height="40" viewBox="0 0 35 40" fill="none" xmlns="http://www.w3.org/2000/svg">
<g id="Icon">
<path id="Vector" d="M16.868 21.5531C16.9094 21.5531 16.9509 21.5531 17.0006 21.5531C17.0171 21.5531 17.0337 21.5531 17.0503 21.5531C17.0751 21.5531 17.1082 21.5531 17.1331 21.5531C19.5601 21.5117 21.5232 20.6585 22.9728 19.0267C26.1619 15.4318 25.6318 9.269 25.5738 8.68089C25.3667 4.26589 23.2793 2.15366 21.5564 1.16794C20.2725 0.430731 18.7732 0.0331332 17.1 0H17.042C17.0337 0 17.0171 0 17.0088 0H16.9592C16.0397 0 14.2339 0.149099 12.5027 1.13481C10.7633 2.12052 8.64273 4.23276 8.43565 8.68089C8.37766 9.269 7.84753 15.4318 11.0366 19.0267C12.4779 20.6585 14.441 21.5117 16.868 21.5531ZM10.6473 8.88797C10.6473 8.86312 10.6556 8.83827 10.6556 8.8217C10.9289 2.88258 15.1451 2.24477 16.9509 2.24477H16.984C17.0006 2.24477 17.0254 2.24477 17.0503 2.24477C19.2868 2.29447 23.0888 3.20563 23.3456 8.8217C23.3456 8.84655 23.3456 8.8714 23.3538 8.88797C23.3621 8.94595 23.942 14.5786 21.3079 17.544C20.2642 18.7202 18.8726 19.3001 17.042 19.3166C17.0254 19.3166 17.0171 19.3166 17.0006 19.3166C16.984 19.3166 16.9757 19.3166 16.9592 19.3166C15.1368 19.3001 13.737 18.7202 12.7015 17.544C10.0757 14.5952 10.639 8.93767 10.6473 8.88797Z" fill="#C3DD4F"/>
<path id="Vector_2" d="M34.0217 31.7746C34.0217 31.7664 34.0217 31.7581 34.0217 31.7498C34.0217 31.6835 34.0134 31.6173 34.0134 31.5427C33.9637 29.9026 33.8561 26.0675 30.2611 24.8415C30.2363 24.8332 30.2031 24.825 30.1783 24.8167C26.4425 23.8641 23.3363 21.7104 23.3031 21.6856C22.7979 21.3294 22.1021 21.4537 21.7459 21.9589C21.3897 22.4642 21.514 23.16 22.0192 23.5162C22.1601 23.6156 25.4568 25.9101 29.5819 26.9703C31.5119 27.6578 31.7272 29.7204 31.7852 31.609C31.7852 31.6835 31.7852 31.7498 31.7935 31.8161C31.8018 32.5616 31.7521 33.7129 31.6196 34.3756C30.2777 35.1377 25.0178 37.7717 17.0161 37.7717C9.04761 37.7717 3.75458 35.1294 2.40441 34.3673C2.27188 33.7046 2.21389 32.5533 2.23046 31.8078C2.23046 31.7415 2.23874 31.6752 2.23874 31.6007C2.29673 29.7121 2.51209 27.6496 4.4421 26.962C8.56717 25.9018 11.8639 23.599 12.0047 23.5079C12.51 23.1517 12.6343 22.4559 12.2781 21.9507C11.9219 21.4454 11.2261 21.3211 10.7208 21.6773C10.6877 21.7022 7.59803 23.8558 3.8457 24.8084C3.81257 24.8167 3.78772 24.825 3.76287 24.8332C0.16792 26.0675 0.0602376 29.9026 0.0105379 31.5344C0.0105379 31.609 0.0105377 31.6752 0.00225442 31.7415C0.00225442 31.7498 0.00225442 31.7581 0.00225442 31.7664C-0.00602887 32.1971 -0.014312 34.4087 0.424702 35.5187C0.507535 35.7341 0.656635 35.9163 0.855433 36.0405C1.10393 36.2062 7.05962 40 17.0244 40C26.9892 40 32.9449 36.1979 33.1934 36.0405C33.3839 35.9163 33.5413 35.7341 33.6241 35.5187C34.0383 34.417 34.03 32.2054 34.0217 31.7746Z" fill="#C3DD4F"/>
</g>
</svg>
