<svg width="60" height="61" viewBox="0 0 60 61" fill="none" xmlns="http://www.w3.org/2000/svg">
<g id="rocket-launch 2" clip-path="url(#clip0_1_220)">
<path id="Vector" d="M1.54742 50.5025C1.34742 50.5025 1.23492 50.5 1.21492 50.5C0.524923 50.48 -0.0175765 49.905 -7.65377e-05 49.215C0.0199235 48.525 0.574923 48.03 1.28492 48C1.69992 47.995 44.1574 48.75 53.7874 11.4375C53.9599 10.7675 54.6399 10.37 55.3099 10.54C55.9774 10.7125 56.3799 11.395 56.2074 12.0625C46.5424 49.52 5.66742 50.5025 1.54742 50.5025Z" fill="white"/>
<path id="Vector_2" d="M58.7499 19.495C58.3174 19.495 57.8974 19.2725 57.6649 18.87L54.5399 13.4575L49.1274 16.5825C48.5299 16.925 47.7649 16.7225 47.4199 16.125C47.0749 15.5275 47.2799 14.7625 47.8774 14.4175L54.3724 10.6675C54.9674 10.32 55.7324 10.525 56.0799 11.125L59.8299 17.62C60.1749 18.2175 59.9699 18.9825 59.3724 19.3275C59.1774 19.4425 58.9624 19.495 58.7499 19.495Z" fill="white"/>
<path id="Vector_3" d="M53.75 60.5C53.06 60.5 52.5 59.94 52.5 59.25V26.75C52.5 26.06 53.06 25.5 53.75 25.5C54.44 25.5 55 26.06 55 26.75V59.25C55 59.94 54.44 60.5 53.75 60.5Z" fill="white"/>
<path id="Vector_4" d="M38.75 60.5C38.06 60.5 37.5 59.94 37.5 59.25V44.25C37.5 43.56 38.06 43 38.75 43C39.44 43 40 43.56 40 44.25V59.25C40 59.94 39.44 60.5 38.75 60.5Z" fill="white"/>
<path id="Vector_5" d="M23.75 60.5C23.06 60.5 22.5 59.94 22.5 59.25V51.7499C22.5 51.0599 23.06 50.4999 23.75 50.4999C24.44 50.4999 25 51.0599 25 51.7499V59.25C25 59.94 24.44 60.5 23.75 60.5Z" fill="white"/>
<path id="Vector_6" d="M8.75 60.5C8.06 60.5 7.5 59.94 7.5 59.25V55.4999C7.5 54.8099 8.06 54.2499 8.75 54.2499C9.44 54.2499 10 54.8099 10 55.4999V59.25C10 59.94 9.44 60.5 8.75 60.5Z" fill="white"/>
<path id="Vector_7" d="M18.1449 30.095C17.8249 30.095 17.5049 29.9725 17.2599 29.73L8.26993 20.7375C7.79993 20.2675 7.77993 19.51 8.22493 19.0175L15.5899 10.84C20.8224 4.79749 29.1224 0.632492 36.2274 0.499992C36.5224 0.459992 36.8949 0.627492 37.1349 0.864992C37.3749 1.10749 37.5049 1.43499 37.4999 1.77249C37.3674 8.87749 33.2024 17.1775 27.1399 22.425L18.9799 29.775C18.7449 29.99 18.4449 30.095 18.1449 30.095ZM10.8774 19.81L18.1924 27.125L25.4874 20.5525C30.6774 16.06 34.3424 9.19749 34.9224 3.07749C28.8024 3.65749 21.9424 7.32249 17.4649 12.495L10.8774 19.81Z" fill="white"/>
<path id="Vector_8" d="M21.5101 36.025C21.3976 36.025 21.2826 36.01 21.1701 35.9775C20.7351 35.8525 20.4001 35.5075 20.2926 35.065L18.5251 27.69C18.3651 27.02 18.7801 26.345 19.4501 26.1825C20.1276 26.025 20.7976 26.4375 20.9576 27.1075L22.1301 32.005C24.3026 28.6075 24.7351 24.26 24.7801 21.7175C24.7926 21.0275 25.3876 20.4875 26.0526 20.49C26.7426 20.5 27.2926 21.0725 27.2801 21.76C27.1751 27.675 25.4401 32.61 22.3926 35.6575C22.1551 35.895 21.8351 36.025 21.5101 36.025Z" fill="white"/>
<path id="Vector_9" d="M10.6026 19.5075C10.5051 19.5075 10.4076 19.4975 10.3101 19.4725L2.93508 17.705C2.49508 17.6 2.14508 17.2675 2.02258 16.83C1.90008 16.395 2.02258 15.9275 2.34008 15.6075C5.38758 12.56 10.3226 10.825 16.2401 10.72C16.9326 10.6575 17.5001 11.2575 17.5101 11.9475C17.5201 12.6375 16.9751 13.2075 16.2826 13.22C13.7376 13.265 9.39258 13.6975 5.99508 15.87L10.8926 17.0425C11.5626 17.2025 11.9776 17.8775 11.8176 18.55C11.6776 19.1225 11.1676 19.5075 10.6026 19.5075Z" fill="white"/>
<path id="Vector_10" d="M1.25005 38C0.92255 38 0.60505 37.87 0.36505 37.635C0.0400504 37.31 -0.0799496 36.8325 0.0525504 36.3925C0.46505 35.0125 2.61005 28.0475 4.29005 26.3675C6.31255 24.3425 9.60505 24.34 11.6351 26.3675C13.6601 28.3925 13.6601 31.6875 11.6351 33.7125C9.95755 35.3925 2.99005 37.535 1.61005 37.9475C1.49005 37.9825 1.37005 38 1.25005 38ZM7.96255 27.3475C7.27255 27.3475 6.58255 27.61 6.05755 28.135C5.34755 28.845 4.12755 31.975 3.17255 34.8275C6.02505 33.8725 9.15755 32.6525 9.86505 31.945C10.9151 30.895 10.9151 29.185 9.86505 28.1375C9.34005 27.61 8.65005 27.3475 7.96255 27.3475Z" fill="white"/>
</g>
<defs>
<clipPath id="clip0_1_220">
<rect width="60" height="60" fill="white" transform="translate(0 0.5)"/>
</clipPath>
</defs>
</svg>
