<svg width="72" height="72" viewBox="0 0 72 72" fill="none" xmlns="http://www.w3.org/2000/svg">
<path d="M28.59 48.366C27.8052 46.4311 26.372 44.8294 24.536 43.835C22.7 42.8407 20.5754 42.5156 18.5261 42.9156C16.4768 43.3155 14.6303 44.4155 13.3029 46.0272C11.9755 47.6389 11.2497 49.662 11.25 51.75C11.25 52.6743 11.0601 53.5888 10.6922 54.4367C10.3243 55.2847 9.78616 56.0481 9.11112 56.6795C8.43609 57.3109 7.63856 57.797 6.76796 58.1076C5.89737 58.4181 4.97226 58.5466 4.04999 58.485C5.53333 61.0618 7.82588 63.0769 10.5718 64.2174C13.3176 65.3579 16.3632 65.5599 19.2357 64.7922C22.1082 64.0245 24.6468 62.33 26.4576 59.9717C28.2684 57.6134 29.25 54.7233 29.25 51.75C29.25 50.553 29.016 49.41 28.59 48.366ZM28.59 48.366C32.157 47.1506 35.5685 45.5194 38.754 43.506M23.625 43.431C24.8406 39.8564 26.4739 36.4377 28.491 33.246M38.751 43.506C44.44 39.9116 49.3094 35.1607 53.043 29.562L64.671 12.12C65.1164 11.4557 65.3175 10.6573 65.2397 9.86126C65.162 9.06521 64.8103 8.32083 64.2447 7.75526C63.6791 7.18969 62.9348 6.838 62.1387 6.76025C61.3427 6.68251 60.5443 6.88352 59.88 7.32898L42.438 18.96C36.8385 22.6924 32.0867 27.5608 28.491 33.249C33.0567 35.2904 36.7096 38.9433 38.751 43.509" stroke="#C3DD4F" stroke-width="1.5" stroke-linecap="round" stroke-linejoin="round"/>
</svg>
