<svg width="72" height="72" viewBox="0 0 72 72" fill="none" xmlns="http://www.w3.org/2000/svg">
<path d="M49.5 56.25H22.5M49.5 56.25C51.8869 56.25 54.1761 57.1982 55.864 58.886C57.5518 60.5739 58.5 62.8631 58.5 65.25H13.5C13.5 62.8631 14.4482 60.5739 16.136 58.886C17.8239 57.1982 20.1131 56.25 22.5 56.25M49.5 56.25V46.125C49.5 44.262 47.991 42.75 46.125 42.75H43.512M22.5 56.25V46.125C22.5 44.262 24.012 42.75 25.875 42.75H28.491M43.512 42.75H28.491M43.512 42.75C41.827 39.8399 40.82 36.5872 40.566 33.234M28.491 42.75C30.175 39.8396 31.1809 36.5869 31.434 33.234M40.566 33.234C43.5899 32.5362 46.409 31.1502 48.81 29.184M40.566 33.234C37.5614 33.927 34.4386 33.927 31.434 33.234M31.434 33.234C28.4112 32.5357 25.5901 31.1498 23.19 29.184M15.75 12.708C12.804 13.137 9.888 13.659 7.002 14.268C7.67099 18.1944 9.62273 21.7882 12.5518 24.4871C15.4809 27.1861 19.2221 28.8378 23.19 29.184M15.75 12.708V13.5C15.75 19.824 18.648 25.47 23.19 29.184M15.75 12.708V8.163C22.368 7.23 29.13 6.75 36 6.75C42.873 6.75 49.635 7.23 56.25 8.16V12.708M56.25 12.708V13.5C56.25 19.824 53.352 25.47 48.81 29.184M56.25 12.708C59.1819 13.1346 62.0994 13.6549 64.998 14.268C64.3291 18.1939 62.3778 21.7874 59.4493 24.4863C56.5208 27.1852 52.7773 28.8372 48.81 29.184" stroke="#C3DD4F" stroke-width="1.5" stroke-linecap="round" stroke-linejoin="round"/>
</svg>
