<svg width="72" height="72" viewBox="0 0 72 72" fill="none" xmlns="http://www.w3.org/2000/svg">
<path d="M51.177 46.563C52.5804 45.6046 54.2264 45.0632 55.9247 45.0013C57.6229 44.9394 59.304 45.3596 60.7734 46.2133C62.2429 47.0669 63.4406 48.3192 64.228 49.8251C65.0154 51.3311 65.3604 53.0292 65.223 54.723C61.6235 55.981 57.8003 56.4705 54 56.16C53.9883 52.7599 53.0092 49.4303 51.177 46.566C49.5507 44.0154 47.3074 41.9161 44.6545 40.4625C42.0016 39.0089 39.025 38.2479 36 38.25C32.9755 38.2485 29.9995 39.0097 27.3472 40.4632C24.6949 41.9168 22.452 44.0158 20.826 46.566M53.997 56.157L54 56.25C54 56.925 53.964 57.591 53.889 58.248C48.4451 61.3714 42.2763 63.01 36 63C29.49 63 23.379 61.272 18.111 58.248C18.0339 57.5537 17.9968 56.8556 18 56.157M18 56.157C14.2009 56.4788 10.3797 55.9911 6.783 54.726C6.64605 53.0327 6.99118 51.3351 7.77849 49.8297C8.56579 48.3242 9.76311 47.0724 11.232 46.2189C12.7009 45.3653 14.3814 44.945 16.0792 45.0064C17.7769 45.0678 19.4226 45.6085 20.826 46.566M18 56.157C18.0108 52.7572 18.9949 49.4306 20.826 46.566M45 20.25C45 22.6369 44.0518 24.9261 42.364 26.614C40.6761 28.3018 38.3869 29.25 36 29.25C33.6131 29.25 31.3239 28.3018 29.636 26.614C27.9482 24.9261 27 22.6369 27 20.25C27 17.8631 27.9482 15.5739 29.636 13.886C31.3239 12.1982 33.6131 11.25 36 11.25C38.3869 11.25 40.6761 12.1982 42.364 13.886C44.0518 15.5739 45 17.8631 45 20.25ZM63 29.25C63 30.1364 62.8254 31.0142 62.4862 31.8331C62.147 32.6521 61.6498 33.3962 61.023 34.023C60.3962 34.6498 59.6521 35.147 58.8331 35.4862C58.0142 35.8254 57.1364 36 56.25 36C55.3636 36 54.4858 35.8254 53.6669 35.4862C52.8479 35.147 52.1038 34.6498 51.477 34.023C50.8502 33.3962 50.353 32.6521 50.0138 31.8331C49.6746 31.0142 49.5 30.1364 49.5 29.25C49.5 27.4598 50.2112 25.7429 51.477 24.477C52.7429 23.2112 54.4598 22.5 56.25 22.5C58.0402 22.5 59.7571 23.2112 61.023 24.477C62.2888 25.7429 63 27.4598 63 29.25ZM22.5 29.25C22.5 30.1364 22.3254 31.0142 21.9862 31.8331C21.647 32.6521 21.1498 33.3962 20.523 34.023C19.8962 34.6498 19.1521 35.147 18.3331 35.4862C17.5142 35.8254 16.6364 36 15.75 36C14.8636 36 13.9858 35.8254 13.1669 35.4862C12.3479 35.147 11.6038 34.6498 10.977 34.023C10.3502 33.3962 9.85303 32.6521 9.51381 31.8331C9.1746 31.0142 9 30.1364 9 29.25C9 27.4598 9.71116 25.7429 10.977 24.477C12.2429 23.2112 13.9598 22.5 15.75 22.5C17.5402 22.5 19.2571 23.2112 20.523 24.477C21.7888 25.7429 22.5 27.4598 22.5 29.25Z" stroke="#C3DD4F" stroke-width="1.5" stroke-linecap="round" stroke-linejoin="round"/>
</svg>
