<svg width="1144" height="699" viewBox="0 0 1144 699" fill="none" xmlns="http://www.w3.org/2000/svg">
<g clip-path="url(#clip0_155_82)">
<path d="M0 50.3792C0 21.2958 24.7267 -1.65066 53.7291 0.518458L1097.73 78.6003C1123.82 80.5519 1144 102.293 1144 128.461V648.5C1144 676.114 1121.61 698.5 1094 698.5H50C22.3858 698.5 0 676.114 0 648.5V50.3792Z" fill="#2D3E74"/>
<mask id="mask0_155_82" style="mask-type:alpha" maskUnits="userSpaceOnUse" x="-332" y="-242" width="866" height="820">
<path d="M-267.638 153.996L144.406 564.135" stroke="black" stroke-width="2.28" stroke-miterlimit="10"/>
<path d="M-248.507 134.781L163.537 544.919" stroke="black" stroke-width="2.28" stroke-miterlimit="10"/>
<path d="M-331 13.933L81.0436 424.071" stroke="black" stroke-width="2.28" stroke-miterlimit="10"/>
<path d="M-210.245 96.3417L201.799 506.48" stroke="black" stroke-width="2.28" stroke-miterlimit="10"/>
<path d="M-191.114 77.1178L220.929 487.256" stroke="black" stroke-width="2.28" stroke-miterlimit="10"/>
<path d="M-171.984 57.8938L240.06 468.032" stroke="black" stroke-width="2.28" stroke-miterlimit="10"/>
<path d="M-24.9759 166.555L387.068 576.694" stroke="black" stroke-width="2.28" stroke-miterlimit="10"/>
<path d="M-133.714 19.4546L278.321 429.593" stroke="black" stroke-width="2.28" stroke-miterlimit="10"/>
<path d="M-114.583 0.239136L297.461 410.377" stroke="black" stroke-width="2.28" stroke-miterlimit="10"/>
<path d="M-171.67 -95.2029L240.374 314.935" stroke="black" stroke-width="2.28" stroke-miterlimit="10"/>
<path d="M-0.103302 38.0095L411.94 448.148" stroke="black" stroke-width="2.28" stroke-miterlimit="10"/>
<path d="M-57.1906 -57.4242L354.853 352.714" stroke="black" stroke-width="2.28" stroke-miterlimit="10"/>
<path d="M-38.0598 -76.6481L373.984 333.49" stroke="black" stroke-width="2.28" stroke-miterlimit="10"/>
<path d="M-120.553 -197.496L291.49 212.642" stroke="black" stroke-width="2.28" stroke-miterlimit="10"/>
<path d="M0.20163 -115.087L412.245 295.051" stroke="black" stroke-width="2.28" stroke-miterlimit="10"/>
<path d="M120.965 -32.6871L533 377.451" stroke="black" stroke-width="2.28" stroke-miterlimit="10"/>
<path d="M38.4715 -153.527L450.515 256.611" stroke="black" stroke-width="2.28" stroke-miterlimit="10"/>
<path d="M-10.1471 -240.5L401.897 169.638" stroke="black" stroke-width="2.28" stroke-miterlimit="10"/>
<path d="M76.7329 -191.974L488.777 218.164" stroke="black" stroke-width="2.28" stroke-miterlimit="10"/>
<path d="M95.8635 -211.19L507.907 198.948" stroke="black" stroke-width="2" stroke-miterlimit="10"/>
<path d="M114.994 -230.414L527.038 179.724" stroke="black" stroke-width="2" stroke-miterlimit="10"/>
</mask>
<g mask="url(#mask0_155_82)">
<ellipse cx="127.655" cy="167.817" rx="292.593" ry="292.593" fill="white" fill-opacity="0.2"/>
</g>
</g>
<defs>
<clipPath id="clip0_155_82">
<rect width="1475" height="939" fill="white" transform="translate(-331 -240.5)"/>
</clipPath>
</defs>
</svg>
