<svg width="649" height="193" viewBox="0 0 649 193" fill="none" xmlns="http://www.w3.org/2000/svg">
<path d="M492.401 0L519.406 14.3638L492.401 25.4992V0Z" fill="#4541FF"/>
<path d="M492.401 59.4757V0" stroke="white" stroke-width="2" stroke-miterlimit="10"/>
<path d="M339.745 128.092L377.249 103.626L409.544 122.488L359.44 159.251L339.745 128.092Z" fill="#7583B1"/>
<path d="M223.544 111.497L267.633 88.0906L311.717 116.078L265.433 151.54L223.544 111.497Z" fill="#7583B1"/>
<path d="M71.2228 147.165L81.3865 163.966L61.9691 179.553L71.2228 147.165Z" fill="#3A4B84"/>
<path d="M199.747 77.2483L265.433 142.343L186.354 189.691L199.747 77.2483Z" fill="#3A4B84"/>
<path d="M335.735 98.2795L399.951 161.822L316.184 189.691L335.735 98.2795Z" fill="#3A4B84"/>
<path d="M0 192.662L71.2228 147.165L63.5114 176.982L199.747 77.2479L186.894 186.236L335.735 98.2795L320.045 185.208L491.887 57.0593L470.994 192.93L0 192.662Z" fill="#5A6999"/>
<path d="M557.023 147.936L594.834 122.555L586.388 180.53L557.023 147.936Z" fill="#5A6999"/>
<path d="M491.887 57.0593L579.921 156.275L594.834 122.555L648.856 192.662L470.994 192.93L491.887 57.0593Z" fill="#3A4B84"/>
<path d="M6.77571 170.299L75.4383 129.367L87.4733 141.058L199.999 59.4757L234.299 91.1491L267.633 69.8553L313.244 98.2796L339.745 80.3428L359.764 98.2796L378.559 85.0417L409.544 103.626L484.288 46.978" stroke="white" stroke-width="2" stroke-miterlimit="10"/>
<path d="M500.606 45.0039L570.775 122.555L596.67 103.117L643.864 164.87" stroke="white" stroke-width="2" stroke-miterlimit="10"/>
<path d="M123.804 95.2002L201.428 39.3643L235.857 72.071L265.433 53.5687" stroke="white" stroke-width="2" stroke-miterlimit="10"/>
<path d="M552.077 83.2886L572.235 104.937L598.325 88.0902L624.59 119.815" stroke="white" stroke-width="2" stroke-miterlimit="10"/>
<path d="M513.803 104.937L584.491 183.681L597.955 147.571L626.415 186.437" stroke="white" stroke-width="2" stroke-miterlimit="10"/>
<path d="M470.994 93.0103L353.682 178.823" stroke="white" stroke-width="2" stroke-miterlimit="10"/>
<path d="M104.778 167.929L184.123 108.639" stroke="white" stroke-width="2" stroke-miterlimit="10"/>
<path d="M203.973 100.048L245.943 140.944" stroke="white" stroke-width="2" stroke-miterlimit="10"/>
</svg>
