<svg width="1440" height="685" viewBox="0 0 1440 685" fill="none" xmlns="http://www.w3.org/2000/svg">
<path d="M0 -137C0 -164.614 22.3858 -187 50 -187H1390C1417.61 -187 1440 -164.614 1440 -137V630.516C1440 659.638 1415.21 682.598 1386.17 680.37L46.1744 577.543C20.1206 575.544 0 553.82 0 527.69V-137Z" fill="url(#paint0_linear_1_387)"/>
<mask id="mask0_1_387" style="mask-type:alpha" maskUnits="userSpaceOnUse" x="-86" y="-194" width="1440" height="869">
<path d="M-86 -154C-86 -176.091 -68.0914 -194 -46 -194H1314C1336.09 -194 1354 -176.091 1354 -154V634.313C1354 657.61 1334.17 675.978 1310.94 674.196L-49.0605 569.835C-69.9036 568.235 -86 550.856 -86 529.952V-154Z" fill="#F8D1B2"/>
</mask>
<g mask="url(#mask0_1_387)">
<g clip-path="url(#clip0_1_387)">
<path d="M1105.15 406.863L1140.18 428.982L1102.58 441.306L1105.15 406.863Z" fill="#4541FF"/>
<path d="M1099.16 487.199L1105.15 406.863" stroke="white" stroke-width="2" stroke-miterlimit="10"/>
<path d="M886.062 564.522L939.18 535.248L980.905 563.975L909.53 608.591L886.062 564.522Z" fill="#7583B1"/>
<path d="M730.776 530.415L792.683 503.235L849.412 545.474L783.327 588.717L730.776 530.415Z" fill="#7583B1"/>
<path d="M521.442 563.268L533.48 586.983L505.684 606.084L521.442 563.268Z" fill="#2D3E74"/>
<path d="M702.077 481.76L784.252 576.294L672.675 632.292L702.077 481.76Z" fill="#2D3E74"/>
<path d="M883.645 523.85L963.99 616.139L848.04 645.355L883.645 523.85Z" fill="#2D3E74"/>
<path d="M420.662 617.557L521.442 563.268L508.026 602.767L702.078 481.76L673.752 627.68L883.645 523.85L853.706 639.688L1098.71 483.883L1056.82 665.305L420.662 617.557Z" fill="#5A6999"/>
<path d="M1177.55 613.186L1231.18 582.708L1213.93 660.166L1177.55 613.186Z" fill="#5A6999"/>
<path d="M1098.71 483.883L1207.64 626.753L1231.18 582.708L1297.09 682.839L1056.82 665.305L1098.71 483.883Z" fill="#2D3E74"/>
<path d="M432.064 588.032L528.927 539.652L544.007 556.653L704.206 457.78L747.35 504.013L794.517 478.604L853.265 521.587L890.866 500.026L916.102 526.268L942.821 510.278L982.803 538.498L1089.46 469.502" stroke="white" stroke-width="2" stroke-miterlimit="10"/>
<path d="M1111.7 468.477L1198.68 580.287L1235.61 556.637L1293.14 644.797" stroke="white" stroke-width="2" stroke-miterlimit="10"/>
<path d="M597.694 498.368L708.16 430.758L751.373 478.4L793.184 456.384" stroke="white" stroke-width="2" stroke-miterlimit="10"/>
<path d="M1177.37 525.368L1202.42 556.637L1239.36 536.506L1271.64 582.001" stroke="white" stroke-width="2" stroke-miterlimit="10"/>
<path d="M1123.5 550.758L1211.05 664.232L1232.87 616.812L1267.41 672.172" stroke="white" stroke-width="2" stroke-miterlimit="10"/>
<path d="M1066.87 530.341L899.783 634.448" stroke="white" stroke-width="2" stroke-miterlimit="10"/>
<path d="M564.677 594.691L677.816 522.588" stroke="white" stroke-width="2" stroke-miterlimit="10"/>
<path d="M705.492 512.982L758.068 572.444" stroke="white" stroke-width="2" stroke-miterlimit="10"/>
<mask id="mask1_1_387" style="mask-type:alpha" maskUnits="userSpaceOnUse" x="411" y="-296" width="866" height="820">
<path d="M475.362 99.4964L887.406 509.635" stroke="black" stroke-width="2.28" stroke-miterlimit="10"/>
<path d="M494.493 80.281L906.537 490.419" stroke="black" stroke-width="2.28" stroke-miterlimit="10"/>
<path d="M412 -40.567L824.044 369.571" stroke="black" stroke-width="2.28" stroke-miterlimit="10"/>
<path d="M532.755 41.8416L944.799 451.98" stroke="black" stroke-width="2.28" stroke-miterlimit="10"/>
<path d="M551.886 22.6178L963.929 432.756" stroke="black" stroke-width="2.28" stroke-miterlimit="10"/>
<path d="M571.016 3.3938L983.06 413.532" stroke="black" stroke-width="2.28" stroke-miterlimit="10"/>
<path d="M718.024 112.055L1130.07 522.194" stroke="black" stroke-width="2.28" stroke-miterlimit="10"/>
<path d="M609.286 -35.0455L1021.32 375.093" stroke="black" stroke-width="2.28" stroke-miterlimit="10"/>
<path d="M628.417 -54.2609L1040.46 355.877" stroke="black" stroke-width="2.28" stroke-miterlimit="10"/>
<path d="M571.33 -149.703L983.374 260.435" stroke="black" stroke-width="2.28" stroke-miterlimit="10"/>
<path d="M742.897 -16.4905L1154.94 393.648" stroke="black" stroke-width="2.28" stroke-miterlimit="10"/>
<path d="M685.809 -111.924L1097.85 298.214" stroke="black" stroke-width="2.28" stroke-miterlimit="10"/>
<path d="M704.94 -131.148L1116.98 278.99" stroke="black" stroke-width="2.28" stroke-miterlimit="10"/>
<path d="M622.447 -251.996L1034.49 158.142" stroke="black" stroke-width="2.28" stroke-miterlimit="10"/>
<path d="M743.202 -169.587L1155.25 240.551" stroke="black" stroke-width="2.28" stroke-miterlimit="10"/>
<path d="M863.965 -87.1872L1276 322.951" stroke="black" stroke-width="2.28" stroke-miterlimit="10"/>
<path d="M781.472 -208.027L1193.52 202.111" stroke="black" stroke-width="2.28" stroke-miterlimit="10"/>
<path d="M732.853 -295L1144.9 115.138" stroke="black" stroke-width="2.28" stroke-miterlimit="10"/>
<path d="M819.733 -246.474L1231.78 163.664" stroke="black" stroke-width="2.28" stroke-miterlimit="10"/>
<path d="M838.864 -265.69L1250.91 144.448" stroke="black" stroke-width="2" stroke-miterlimit="10"/>
<path d="M857.994 -284.914L1270.04 125.224" stroke="black" stroke-width="2" stroke-miterlimit="10"/>
</mask>
<g mask="url(#mask1_1_387)">
<ellipse cx="870.655" cy="113.317" rx="292.593" ry="292.593" fill="white" fill-opacity="0.4"/>
</g>
</g>
</g>
<defs>
<linearGradient id="paint0_linear_1_387" x1="464.5" y1="-8.5" x2="453.5" y2="617" gradientUnits="userSpaceOnUse">
<stop stop-color="white"/>
<stop offset="1" stop-color="#C1DEF9"/>
</linearGradient>
<clipPath id="clip0_1_387">
<rect width="1258" height="810" fill="white" transform="translate(96 -132)"/>
</clipPath>
</defs>
</svg>
