<svg width="42" height="47" viewBox="0 0 42 47" fill="none" xmlns="http://www.w3.org/2000/svg">
<path d="M20.9949 4.57L28.805 9.08L32.7649 6.8L20.9949 0L1.33495 11.36L5.27495 13.64L20.9949 4.57Z" fill="#C3DD4F"/>
<path d="M36.7051 9.08008L20.9951 18.1501L13.185 13.6401L9.23505 15.9201L20.9951 22.7101L40.6651 11.3601L36.7051 9.08008Z" fill="white"/>
<path d="M4.49495 24.3401L0.544949 22.0601V35.6401L20.2049 47.0001V42.4401L4.49495 33.3601V24.3401Z" fill="white"/>
<path d="M0.544949 17.4999L16.2549 26.5699V35.5899L20.2049 37.8799V24.2899L0.544949 12.9399V17.4999Z" fill="white"/>
<path d="M33.555 22.06V17.5L21.785 24.29V47L25.7351 44.72V26.57L33.555 22.06Z" fill="#C3DD4F"/>
<path d="M37.4951 15.2199V33.3599L29.685 37.8799V42.4399L41.4551 35.6399V12.9399L37.4951 15.2199Z" fill="white"/>
</svg>
